<svg width="101" height="101" viewBox="0 0 101 101" fill="none" xmlns="http://www.w3.org/2000/svg">
<path d="M83.2426 32.1599C83.2426 32.1599 79.7926 24.8544 79.7926 21.8099C79.7926 19.9045 81.3372 18.3599 83.2426 18.3599C85.148 18.3599 86.6926 19.9045 86.6926 21.8099C86.6926 24.8544 83.2426 32.1599 83.2426 32.1599Z" fill="#FFB77C" fill-opacity="0.5"/>
<path d="M86.6926 13.9899C86.6926 15.8953 85.148 17.4399 83.2426 17.4399C81.3372 17.4399 79.7926 15.8953 79.7926 13.9899C79.7926 10.9454 83.2426 3.63991 83.2426 3.63991C83.2426 3.63991 86.6926 10.9454 86.6926 13.9899Z" fill="#FFB77C" fill-opacity="0.5"/>
<path d="M97.5027 17.8999C97.5027 17.8999 91.3392 21.3499 87.1527 21.3499C85.2473 21.3499 83.7027 19.8053 83.7027 17.8999C83.7027 15.9945 85.2473 14.4499 87.1527 14.4499C91.3392 14.4499 97.5027 17.8999 97.5027 17.8999Z" fill="#FFB77C" fill-opacity="0.5"/>
<path d="M79.3327 14.4499C81.2381 14.4499 82.7827 15.9945 82.7827 17.8999C82.7827 19.8053 81.2381 21.3499 79.3327 21.3499C76.2882 21.3499 68.9827 17.8999 68.9827 17.8999C68.9827 17.8999 76.2882 14.4499 79.3327 14.4499Z" fill="#FFB77C" fill-opacity="0.5"/>
<path d="M93.3259 27.9833C93.3259 27.9833 85.7206 25.257 83.5678 23.1042C82.2205 21.7569 82.2205 19.5725 83.5678 18.2252C84.9151 16.8779 87.0995 16.8779 88.4468 18.2252C90.5996 20.3779 93.3259 27.9833 93.3259 27.9833Z" fill="#FFB77C" fill-opacity="0.5"/>
<path d="M82.9174 12.6956C84.2647 14.0429 84.2647 16.2273 82.9174 17.5746C81.5701 18.9219 79.3857 18.9219 78.0384 17.5746C75.8856 15.4219 73.1593 7.81656 73.1593 7.81656C73.1593 7.81656 80.7646 10.5428 82.9174 12.6956Z" fill="#FFB77C" fill-opacity="0.5"/>
<path d="M93.326 7.81656C93.326 7.81656 90.5997 15.4219 88.447 17.5746C87.0996 18.9219 84.9152 18.9219 83.5679 17.5746C82.2206 16.2273 82.2206 14.0429 83.5679 12.6956C85.7207 10.5428 93.326 7.81656 93.326 7.81656Z" fill="#FFB77C" fill-opacity="0.5"/>
<path d="M78.0383 18.2252C79.3856 16.8779 81.57 16.8779 82.9173 18.2252C84.2646 19.5725 84.2646 21.7569 82.9173 23.1042C80.7645 25.257 73.1592 27.9833 73.1592 27.9833C73.1592 27.9833 75.8855 20.3779 78.0383 18.2252Z" fill="#FFB77C" fill-opacity="0.5"/>
<path d="M83.2426 18.5899C85.021 18.5899 86.4626 20.0316 86.4626 21.8099C86.4626 22.5369 86.255 23.5383 85.9327 24.6473C85.6119 25.7512 85.1833 26.9428 84.7534 28.0429C84.3237 29.1424 83.8938 30.1475 83.5713 30.8779C83.4422 31.1704 83.3303 31.4186 83.2426 31.6111C83.1549 31.4186 83.0431 31.1704 82.914 30.8779C82.5914 30.1475 82.1616 29.1424 81.7318 28.0429C81.3019 26.9428 80.8733 25.7512 80.5526 24.6473C80.2303 23.5383 80.0226 22.5369 80.0226 21.8099C80.0226 20.0316 81.4643 18.5899 83.2426 18.5899Z" stroke="#762C00" stroke-width="0.46"/>
<path d="M83.2426 17.2099C81.4643 17.2099 80.0226 15.7683 80.0226 13.9899C80.0226 13.2629 80.2303 12.2615 80.5526 11.1525C80.8733 10.0486 81.3019 8.857 81.7318 7.75695C82.1616 6.65743 82.5914 5.65228 82.914 4.92188C83.0431 4.62947 83.1549 4.38122 83.2426 4.18873C83.3303 4.38122 83.4422 4.62947 83.5713 4.92188C83.8938 5.65228 84.3237 6.65743 84.7534 7.75695C85.1833 8.857 85.6119 10.0486 85.9327 11.1525C86.255 12.2615 86.4626 13.2629 86.4626 13.9899C86.4626 15.7683 85.021 17.2099 83.2426 17.2099Z" stroke="#762C00" stroke-width="0.46"/>
<path d="M83.9327 17.8999C83.9327 16.1215 85.3743 14.6799 87.1527 14.6799C89.1969 14.6799 91.7481 15.526 93.8089 16.3871C94.8349 16.8158 95.7312 17.2447 96.3709 17.5663C96.6328 17.698 96.8516 17.8117 97.0185 17.8999C96.8516 17.9881 96.6328 18.1018 96.3709 18.2335C95.7312 18.5552 94.8349 18.984 93.8089 19.4127C91.7481 20.2738 89.1969 21.1199 87.1527 21.1199C85.3743 21.1199 83.9327 19.6783 83.9327 17.8999Z" stroke="#762C00" stroke-width="0.46"/>
<path d="M82.5527 17.8999C82.5527 19.6783 81.1111 21.1199 79.3327 21.1199C78.6057 21.1199 77.6043 20.9122 76.4953 20.59C75.3914 20.2692 74.1998 19.8406 73.0998 19.4107C72.0002 18.981 70.9951 18.5511 70.2647 18.2286C69.9723 18.0994 69.724 17.9876 69.5315 17.8999C69.724 17.8122 69.9723 17.7004 70.2647 17.5712C70.9951 17.2487 72.0002 16.8188 73.0998 16.3891C74.1998 15.9592 75.3914 15.5306 76.4953 15.2098C77.6043 14.8876 78.6057 14.6799 79.3327 14.6799C81.1111 14.6799 82.5527 16.1215 82.5527 17.8999Z" stroke="#762C00" stroke-width="0.46"/>
<path d="M83.7304 18.3878C84.9879 17.1303 87.0267 17.1303 88.2842 18.3878C88.7982 18.9019 89.3595 19.7568 89.9158 20.7689C90.4696 21.7763 91.0091 22.9219 91.483 24.0038C91.9566 25.0851 92.3634 26.0998 92.6518 26.8444C92.7672 27.1424 92.8637 27.3971 92.9378 27.5952C92.7397 27.5211 92.485 27.4246 92.187 27.3092C91.4424 27.0208 90.4277 26.614 89.3464 26.1403C88.2645 25.6665 87.1189 25.127 86.1115 24.5732C85.0994 24.0169 84.2445 23.4556 83.7304 22.9416C82.4729 21.6841 82.4729 19.6453 83.7304 18.3878Z" stroke="#762C00" stroke-width="0.46"/>
<path d="M82.7548 17.412C81.4973 18.6695 79.4585 18.6695 78.201 17.412C77.687 16.898 77.1257 16.043 76.5694 15.0309C76.0156 14.0235 75.4761 12.8779 75.0022 11.796C74.5286 10.7147 74.1218 9.69998 73.8334 8.95545C73.718 8.65738 73.6215 8.40275 73.5474 8.20463C73.7455 8.27875 74.0002 8.37519 74.2982 8.49065C75.0428 8.77906 76.0575 9.18584 77.1388 9.65947C78.2207 10.1333 79.3663 10.6729 80.3737 11.2266C81.3858 11.7829 82.2407 12.3442 82.7548 12.8582C84.0123 14.1157 84.0123 16.1545 82.7548 17.412Z" stroke="#762C00" stroke-width="0.46"/>
<path d="M83.7306 17.412C82.4731 16.1545 82.4731 14.1157 83.7306 12.8582C84.2446 12.3442 85.0996 11.7829 86.1116 11.2266C87.119 10.6729 88.2647 10.1333 89.3465 9.65947C90.4279 9.18584 91.4426 8.77906 92.1871 8.49065C92.4852 8.37519 92.7398 8.27875 92.9379 8.20464C92.8638 8.40275 92.7674 8.65738 92.6519 8.95545C92.3635 9.69999 91.9567 10.7147 91.4831 11.796C91.0092 12.8779 90.4697 14.0235 89.9159 15.0309C89.3596 16.043 88.7984 16.898 88.2843 17.412C87.0268 18.6695 84.988 18.6695 83.7306 17.412Z" stroke="#762C00" stroke-width="0.46"/>
<path d="M82.7547 18.3878C84.0122 19.6453 84.0122 21.6841 82.7547 22.9416C82.2406 23.4556 81.3857 24.0169 80.3736 24.5732C79.3662 25.127 78.2205 25.6665 77.1387 26.1403C76.0574 26.614 75.0427 27.0208 74.2981 27.3092C74 27.4246 73.7454 27.5211 73.5473 27.5952C73.6214 27.3971 73.7179 27.1424 73.8333 26.8444C74.1217 26.0998 74.5285 25.0851 75.0021 24.0038C75.476 22.9219 76.0155 21.7763 76.5693 20.7689C77.1256 19.7568 77.6869 18.9019 78.2009 18.3878C79.4584 17.1303 81.4972 17.1303 82.7547 18.3878Z" stroke="#762C00" stroke-width="0.46"/>
<path d="M90.2782 51.4242C90.2782 51.4242 89.162 46.8675 86.9782 45.0399C83.4026 42.0476 77.2153 43.5378 73.6382 40.4399C71.5975 38.6726 70.4982 34.4042 70.4982 34.4042" stroke="#762C00" stroke-width="0.46"/>
<path d="M78.6494 52.9311C78.6348 52.967 78.6211 53.0006 78.6082 53.0319C78.583 53.0092 78.5561 52.9849 78.5275 52.9588C78.3286 52.7776 78.0508 52.5169 77.7358 52.1998C77.1043 51.5641 76.3302 50.7083 75.7428 49.8161C75.1479 48.9124 74.7783 48.0213 74.8766 47.2997C74.9242 46.9498 75.0828 46.6313 75.3991 46.3576C75.72 46.0798 76.2125 45.8406 76.9366 45.6761C77.6606 45.5115 78.2081 45.5144 78.6176 45.6262C79.0211 45.7363 79.3018 45.955 79.496 46.25C79.8964 46.8582 79.9483 47.8214 79.8023 48.8935C79.6582 49.952 79.33 51.0583 79.0353 51.9045C78.8883 52.3266 78.7504 52.6817 78.6494 52.9311Z" fill="#FFB77C" fill-opacity="0.5" stroke="#762C00" stroke-width="0.46"/>
<rect x="77.6982" y="48.1751" width="0.453699" height="2.94904" transform="rotate(167.197 77.6982 48.1751)" fill="#FFF1E5"/>
<path d="M88.0417 38.3728C88.0752 38.392 88.1066 38.4103 88.1359 38.4273C88.11 38.4492 88.0822 38.4725 88.0525 38.4973C87.8458 38.6695 87.5496 38.9091 87.1924 39.1778C86.4763 39.7165 85.5228 40.3664 84.5587 40.8264C83.5822 41.2923 82.649 41.5367 81.9476 41.3408C81.6075 41.2457 81.3136 41.0451 81.0857 40.6944C80.8544 40.3385 80.6847 39.8179 80.6207 39.0782C80.5566 38.3385 80.6342 37.7965 80.8009 37.4061C80.9651 37.0215 81.2201 36.7733 81.5388 36.6212C82.1961 36.3077 83.1574 36.3879 84.1995 36.679C85.2283 36.9663 86.2794 37.4426 87.0774 37.8502C87.4754 38.0535 87.8085 38.2386 88.0417 38.3728Z" fill="#FFB77C" fill-opacity="0.5" stroke="#762C00" stroke-width="0.46"/>
<rect x="83.2002" y="38.6652" width="0.453699" height="2.94904" transform="rotate(85.0497 83.2002 38.6652)" fill="#FFF1E5"/>
<path d="M93.6241 63.6232C93.5764 63.7505 93.5343 63.8604 93.4992 63.9507C93.4251 63.8883 93.3355 63.8121 93.2326 63.7232C92.9145 63.4486 92.47 63.0533 91.9653 62.5716C90.9542 61.6066 89.708 60.3013 88.7506 58.9283C87.7852 57.544 87.1486 56.1399 87.2768 54.9644C87.3397 54.3875 87.5876 53.857 88.0911 53.3972C88.5991 52.9332 89.3766 52.5332 90.5081 52.2441C91.6396 51.955 92.5136 51.933 93.182 52.0964C93.8444 52.2583 94.3163 52.6049 94.6483 53.081C95.3246 54.0509 95.4395 55.5882 95.2566 57.266C95.0751 58.93 94.6079 60.6731 94.1836 62.0048C93.9718 62.6696 93.7714 63.2296 93.6241 63.6232Z" fill="#FFB77C" fill-opacity="0.5" stroke="#762C00" stroke-width="0.46"/>
<rect x="91.8279" y="56.2222" width="0.705754" height="4.5874" transform="rotate(165.667 91.8279 56.2222)" fill="#FFF1E5"/>
<path d="M88.3398 86.6225C88.3398 86.6225 89.1736 82.0057 87.9219 79.4479C85.8725 75.26 79.614 74.1047 77.6062 69.8197C76.4608 67.3751 77.1926 63.0287 77.1926 63.0287" stroke="#762C00" stroke-width="0.46"/>
<path d="M77.1035 83.2692C77.0756 83.296 77.0494 83.3212 77.0248 83.3445C77.0111 83.3136 76.9964 83.2803 76.9809 83.2449C76.8729 82.9985 76.7251 82.6473 76.5664 82.2295C76.248 81.3919 75.8889 80.2953 75.7152 79.2413C75.5392 78.1737 75.5641 77.2093 75.9473 76.5901C76.1332 76.2898 76.4076 76.0634 76.8079 75.942C77.214 75.8187 77.7613 75.8005 78.4896 75.9447C79.218 76.0889 79.717 76.3142 80.0456 76.5829C80.3694 76.8476 80.5369 77.1615 80.5944 77.51C80.7128 78.2285 80.3684 79.1296 79.799 80.0496C79.2368 80.958 78.487 81.8351 77.8735 82.4883C77.5676 82.8141 77.2972 83.0825 77.1035 83.2692Z" fill="#FFB77C" fill-opacity="0.5" stroke="#762C00" stroke-width="0.46"/>
<rect x="78.1692" y="78.5374" width="0.453699" height="2.94904" transform="rotate(-168.803 78.1692 78.5374)" fill="#FFF1E5"/>
<path d="M91.6054 73.7897C91.6282 73.8209 91.6495 73.8504 91.6693 73.8779C91.6367 73.8873 91.6018 73.8973 91.5646 73.9078C91.3057 73.9811 90.9377 74.0795 90.5021 74.1797C89.6288 74.3806 88.4934 74.5865 87.4256 74.6146C86.3439 74.643 85.392 74.4867 84.831 74.0224C84.5589 73.7973 84.3721 73.4944 84.3065 73.0814C84.2399 72.6622 84.2967 72.1176 84.539 71.4158C84.7814 70.7139 85.0727 70.2504 85.3838 69.9616C85.6903 69.677 86.0241 69.5539 86.3772 69.5447C87.1051 69.5255 87.9507 69.9898 88.7843 70.6796C89.6073 71.3606 90.3738 72.2232 90.937 72.9201C91.218 73.2677 91.4469 73.5723 91.6054 73.7897Z" fill="#FFB77C" fill-opacity="0.5" stroke="#762C00" stroke-width="0.46"/>
<rect x="87.0635" y="72.0877" width="0.453699" height="2.94904" transform="rotate(109.05 87.0635 72.0877)" fill="#FFF1E5"/>
<path d="M86.4344 99.1276C86.3391 99.2246 86.2559 99.3078 86.1871 99.376C86.1448 99.2889 86.0939 99.1828 86.036 99.0598C85.8572 98.6795 85.6119 98.1376 85.3467 97.4922C84.8155 96.1994 84.208 94.5001 83.8918 92.8564C83.573 91.1991 83.5625 89.6575 84.1577 88.6358C84.4498 88.1343 84.8921 87.7505 85.539 87.5352C86.1919 87.3179 87.0648 87.2688 88.2161 87.4649C89.3674 87.661 90.1748 87.9964 90.7189 88.4175C91.2581 88.8349 91.5483 89.3435 91.658 89.9134C91.8813 91.0745 91.361 92.5257 90.5115 93.984C89.6689 95.4303 88.5331 96.8327 87.6038 97.8767C87.1399 98.3979 86.729 98.828 86.4344 99.1276Z" fill="#FFB77C" fill-opacity="0.5" stroke="#762C00" stroke-width="0.46"/>
<rect x="87.8037" y="91.6358" width="0.705753" height="4.5874" transform="rotate(-170.333 87.8037 91.6358)" fill="#FFF1E5"/>
<path d="M49.9256 10.7316C49.9256 10.7316 54.4823 11.8477 56.3099 14.0316C59.3022 17.6072 57.812 23.7945 60.9099 27.3716C62.6772 29.4123 66.9456 30.5116 66.9456 30.5116" stroke="#762C00" stroke-width="0.46"/>
<path d="M48.4185 22.3605C48.3827 22.375 48.3491 22.3887 48.3178 22.4016C48.3404 22.4268 48.3648 22.4537 48.3909 22.4823C48.5721 22.6812 48.8328 22.959 49.1499 23.274C49.7856 23.9055 50.6414 24.6796 51.5336 25.267C52.4373 25.862 53.3284 26.2315 54.0499 26.1333C54.3999 26.0856 54.7184 25.927 54.9921 25.6107C55.2699 25.2898 55.5091 24.7973 55.6736 24.0733C55.8381 23.3492 55.8353 22.8017 55.7235 22.3922C55.6134 21.9888 55.3947 21.7081 55.0997 21.5138C54.4915 21.1134 53.5282 21.0616 52.4561 21.2075C51.3977 21.3516 50.2914 21.6798 49.4452 21.9746C49.0231 22.1216 48.6679 22.2595 48.4185 22.3605Z" fill="#FFB77C" fill-opacity="0.5" stroke="#762C00" stroke-width="0.46"/>
<rect width="0.453699" height="2.94904" transform="matrix(-0.221604 0.975137 0.975137 0.221604 53.1746 23.3116)" fill="#FFF1E5"/>
<path d="M62.977 12.9681C62.9578 12.9346 62.9395 12.9032 62.9225 12.8739C62.9006 12.8998 62.8773 12.9276 62.8525 12.9573C62.6803 13.164 62.4407 13.4602 62.172 13.8174C61.6333 14.5335 60.9833 15.487 60.5234 16.4511C60.0574 17.4276 59.8131 18.3608 60.009 19.0622C60.104 19.4023 60.3047 19.6962 60.6554 19.9241C61.0113 20.1554 61.5318 20.3251 62.2716 20.3891C63.0113 20.4532 63.5533 20.3756 63.9436 20.2089C64.3283 20.0447 64.5765 19.7897 64.7286 19.4709C65.0421 18.8137 64.9619 17.8524 64.6708 16.8103C64.3835 15.7815 63.9072 14.7304 63.4996 13.9324C63.2963 13.5343 63.1112 13.2013 62.977 12.9681Z" fill="#FFB77C" fill-opacity="0.5" stroke="#762C00" stroke-width="0.46"/>
<rect width="0.453699" height="2.94904" transform="matrix(-0.99627 -0.086291 -0.086291 0.99627 62.6846 17.8095)" fill="#FFF1E5"/>
<path d="M37.7265 7.38592C37.5992 7.43358 37.4894 7.47567 37.3991 7.51078C37.4614 7.5849 37.5377 7.67453 37.6265 7.77743C37.9012 8.09548 38.2965 8.53996 38.7782 9.04472C39.7431 10.0558 41.0484 11.302 42.4215 12.2594C43.8058 13.2248 45.2098 13.8614 46.3853 13.7332C46.9622 13.6703 47.4928 13.4224 47.9526 12.9189C48.4166 12.4109 48.8165 11.6334 49.1056 10.5019C49.3947 9.3704 49.4168 8.49636 49.2534 7.82799C49.0914 7.16564 48.7448 6.69367 48.2688 6.36173C47.2989 5.68539 45.7616 5.57045 44.0838 5.75339C42.4198 5.93485 40.6767 6.4021 39.345 6.8264C38.6802 7.03822 38.1201 7.2386 37.7265 7.38592Z" fill="#FFB77C" fill-opacity="0.5" stroke="#762C00" stroke-width="0.46"/>
<rect width="0.705753" height="4.5874" transform="matrix(-0.247557 0.968873 0.968873 0.247557 45.1277 9.18219)" fill="#FFF1E5"/>
<path d="M14.7274 12.6701C14.7274 12.6701 19.3441 11.8363 21.902 13.088C26.0899 15.1374 27.2451 21.3959 31.5301 23.4037C33.9747 24.5491 38.3212 23.8173 38.3212 23.8173" stroke="#762C00" stroke-width="0.46"/>
<path d="M18.0806 23.9064C18.0537 23.9343 18.0286 23.9605 18.0052 23.9851C18.0362 23.9988 18.0694 24.0135 18.1048 24.029C18.3513 24.137 18.7024 24.2848 19.1202 24.4435C19.9579 24.7619 21.0545 25.121 22.1085 25.2947C23.1761 25.4707 24.1404 25.4458 24.7596 25.0626C25.06 24.8767 25.2864 24.6023 25.4078 24.202C25.531 23.7959 25.5492 23.2486 25.405 22.5203C25.2609 21.7919 25.0356 21.2929 24.7669 20.9643C24.5022 20.6405 24.1883 20.473 23.8398 20.4156C23.1213 20.2971 22.2202 20.6415 21.3001 21.2109C20.3918 21.7731 19.5147 22.5229 18.8615 23.1364C18.5357 23.4423 18.2673 23.7127 18.0806 23.9064Z" fill="#FFB77C" fill-opacity="0.5" stroke="#762C00" stroke-width="0.46"/>
<rect width="0.453699" height="2.94904" transform="matrix(0.194178 0.980966 0.980966 -0.194178 22.8123 22.8409)" fill="#FFF1E5"/>
<path d="M27.5601 9.4047C27.5289 9.38192 27.4994 9.36061 27.4719 9.34081C27.4625 9.37335 27.4525 9.40829 27.442 9.44548C27.3687 9.70437 27.2703 10.0724 27.1701 10.508C26.9692 11.3813 26.7633 12.5167 26.7352 13.5845C26.7068 14.6662 26.8632 15.6181 27.3274 16.1791C27.5526 16.4512 27.8554 16.638 28.2684 16.7036C28.6876 16.7702 29.2322 16.7134 29.9341 16.4711C30.6359 16.2287 31.0995 15.9374 31.3883 15.6263C31.6728 15.3198 31.7959 14.986 31.8052 14.6329C31.8243 13.905 31.36 13.0594 30.6702 12.2258C29.9892 11.4028 29.1266 10.6363 28.4297 10.0731C28.0821 9.79213 27.7775 9.56321 27.5601 9.4047Z" fill="#FFB77C" fill-opacity="0.5" stroke="#762C00" stroke-width="0.46"/>
<rect width="0.453699" height="2.94904" transform="matrix(-0.945236 0.326389 0.326389 0.945236 29.2621 13.9465)" fill="#FFF1E5"/>
<path d="M2.22215 14.5754C2.12521 14.6707 2.04197 14.7539 1.97376 14.8227C2.0609 14.865 2.16697 14.9159 2.29 14.9737C2.67028 15.1526 3.21217 15.3979 3.85754 15.663C5.15033 16.1943 6.84962 16.8018 8.49339 17.118C10.1507 17.4368 11.6923 17.4473 12.714 16.8521C13.2154 16.5599 13.5993 16.1177 13.8146 15.4707C14.0318 14.8179 14.0809 13.9449 13.8848 12.7937C13.6887 11.6424 13.3534 10.835 12.9322 10.2909C12.5149 9.75164 12.0063 9.46145 11.4364 9.35183C10.2752 9.12846 8.82407 9.64874 7.36579 10.4983C5.91941 11.3409 4.51708 12.4767 3.47307 13.406C2.9519 13.8699 2.52177 14.2807 2.22215 14.5754Z" fill="#FFB77C" fill-opacity="0.5" stroke="#762C00" stroke-width="0.46"/>
<rect width="0.705753" height="4.5874" transform="matrix(0.167922 0.9858 0.9858 -0.167922 9.71375 13.2061)" fill="#FFF1E5"/>
</svg>
