<svg width="101" height="101" viewBox="0 0 101 101" fill="none" xmlns="http://www.w3.org/2000/svg">
<path d="M85.0542 9.84617C85.0563 11.0565 84.5336 12.5414 83.9938 13.7447C83.7259 14.3419 83.4577 14.8614 83.2564 15.2315C83.2063 15.3237 83.1604 15.4066 83.1197 15.479C83.079 15.4066 83.033 15.3237 82.9829 15.2315C82.7817 14.8614 82.5135 14.3419 82.2456 13.7447C81.7058 12.5414 81.1831 11.0565 81.1853 9.84618C81.1875 8.64199 81.7103 7.16549 82.2489 5.96922C82.5163 5.37556 82.7836 4.85918 82.9841 4.49128C83.0338 4.40013 83.0794 4.31816 83.1197 4.24645C83.1601 4.31816 83.2057 4.40013 83.2553 4.49128C83.4559 4.85918 83.7232 5.37556 83.9905 5.96922C84.5292 7.16549 85.052 8.64199 85.0542 9.84617Z" fill="#EAC54F" fill-opacity="0.5" stroke="#9A6700" stroke-width="0.46"/>
<path d="M85.0542 25.879C85.0563 27.0893 84.5336 28.5742 83.9938 29.7775C83.7259 30.3747 83.4577 30.8942 83.2564 31.2643C83.2063 31.3565 83.1604 31.4394 83.1197 31.5118C83.079 31.4394 83.033 31.3565 82.9829 31.2643C82.7817 30.8942 82.5135 30.3747 82.2456 29.7775C81.7058 28.5742 81.1831 27.0893 81.1853 25.879C81.1875 24.6748 81.7103 23.1983 82.2489 22.002C82.5163 21.4084 82.7836 20.892 82.9841 20.5241C83.0338 20.4329 83.0794 20.351 83.1197 20.2793C83.1601 20.351 83.2057 20.4329 83.2553 20.5241C83.4559 20.892 83.7232 21.4084 83.9905 22.002C84.5292 23.1983 85.052 24.6748 85.0542 25.879Z" fill="#EAC54F" fill-opacity="0.5" stroke="#9A6700" stroke-width="0.46"/>
<path d="M76.0711 22.192C76.9254 21.3347 78.345 20.6543 79.5776 20.1852C80.1893 19.9523 80.7463 19.7747 81.1503 19.6552C81.2509 19.6255 81.342 19.5993 81.422 19.5769C81.3996 19.6569 81.3735 19.748 81.3437 19.8486C81.2243 20.2526 81.0466 20.8096 80.8137 21.4213C80.3445 22.6539 79.6641 24.0735 78.8068 24.9277C77.9538 25.7777 76.5401 26.452 75.3133 26.917C74.7045 27.1478 74.1503 27.3239 73.7484 27.4422C73.6488 27.4716 73.5586 27.4973 73.4793 27.5195C73.5015 27.4402 73.5273 27.35 73.5566 27.2505C73.6749 26.8485 73.851 26.2943 74.0818 25.6855C74.5468 24.4588 75.2211 23.045 76.0711 22.192Z" fill="#EAC54F" fill-opacity="0.5" stroke="#9A6700" stroke-width="0.46"/>
<path d="M87.408 10.8551C88.2623 9.99777 89.6819 9.31741 90.9145 8.84824C91.5262 8.61542 92.0832 8.43774 92.4872 8.3183C92.5879 8.28855 92.6789 8.26243 92.7589 8.23999C92.7365 8.31999 92.7104 8.41107 92.6806 8.51171C92.5612 8.91572 92.3835 9.4727 92.1506 10.0844C91.6814 11.3169 91.0011 12.7366 90.1437 13.5908C89.2907 14.4407 87.877 15.1151 86.6502 15.5801C86.0414 15.8109 85.4872 15.987 85.0853 16.1053C84.9857 16.1346 84.8955 16.1604 84.8163 16.1826C84.8384 16.1033 84.8642 16.0131 84.8935 15.9135C85.0119 15.5116 85.1879 14.9574 85.4187 14.3486C85.8837 13.1218 86.5581 11.7081 87.408 10.8551Z" fill="#EAC54F" fill-opacity="0.5" stroke="#9A6700" stroke-width="0.46"/>
<path d="M78.8069 10.8312C79.6642 11.6855 80.3446 13.1051 80.8137 14.3377C81.0466 14.9494 81.2242 15.5064 81.3437 15.9104C81.3734 16.011 81.3996 16.1021 81.422 16.1821C81.342 16.1597 81.2509 16.1335 81.1503 16.1038C80.7463 15.9843 80.1893 15.8067 79.5776 15.5738C78.345 15.1046 76.9254 14.4242 76.0712 13.5669C75.2212 12.7139 74.5469 11.3001 74.0819 10.0734C73.8511 9.46456 73.675 8.91037 73.5567 8.50844C73.5273 8.40886 73.5016 8.3187 73.4794 8.23943C73.5587 8.26159 73.6489 8.28735 73.7484 8.31667C74.1504 8.43503 74.7046 8.61111 75.3134 8.84187C76.5401 9.30686 77.9539 9.98123 78.8069 10.8312Z" fill="#EAC54F" fill-opacity="0.5" stroke="#9A6700" stroke-width="0.46"/>
<path d="M90.1438 22.1681C91.0011 23.0224 91.6815 24.442 92.1507 25.6746C92.3835 26.2863 92.5612 26.8433 92.6806 27.2473C92.7104 27.3479 92.7365 27.439 92.7589 27.519C92.6789 27.4966 92.5878 27.4705 92.4872 27.4407C92.0832 27.3213 91.5262 27.1436 90.9145 26.9107C89.682 26.4415 88.2623 25.7611 87.4081 24.9038C86.5582 24.0508 85.8838 22.6371 85.4188 21.4103C85.188 20.8015 85.0119 20.2473 84.8936 19.8454C84.8643 19.7458 84.8385 19.6556 84.8163 19.5763C84.8956 19.5985 84.9858 19.6243 85.0854 19.6536C85.4873 19.7719 86.0415 19.948 86.6503 20.1788C87.8771 20.6438 89.2908 21.3181 90.1438 22.1681Z" fill="#EAC54F" fill-opacity="0.5" stroke="#9A6700" stroke-width="0.46"/>
<path d="M75.0861 15.945C76.2964 15.9428 77.7814 16.4656 78.9847 17.0054C79.5818 17.2733 80.1013 17.5415 80.4715 17.7427C80.5637 17.7929 80.6466 17.8388 80.719 17.8795C80.6466 17.9202 80.5637 17.9662 80.4715 18.0163C80.1013 18.2175 79.5818 18.4857 78.9847 18.7536C77.7814 19.2933 76.2964 19.8161 75.0862 19.8139C73.882 19.8117 72.4055 19.2889 71.2092 18.7502C70.6155 18.4829 70.0992 18.2156 69.7313 18.015C69.6401 17.9654 69.5581 17.9198 69.4864 17.8794C69.5581 17.8391 69.6401 17.7935 69.7313 17.7438C70.0992 17.5433 70.6155 17.276 71.2092 17.0086C72.4055 16.47 73.882 15.9472 75.0861 15.945Z" fill="#EAC54F" fill-opacity="0.5" stroke="#9A6700" stroke-width="0.46"/>
<path d="M91.119 15.945C92.3293 15.9428 93.8142 16.4656 95.0175 17.0054C95.6147 17.2733 96.1342 17.5415 96.5043 17.7427C96.5965 17.7929 96.6794 17.8388 96.7518 17.8795C96.6794 17.9202 96.5965 17.9662 96.5043 18.0163C96.1342 18.2175 95.6147 18.4857 95.0175 18.7536C93.8142 19.2933 92.3293 19.8161 91.119 19.8139C89.9148 19.8117 88.4383 19.2889 87.242 18.7502C86.6484 18.4829 86.132 18.2156 85.7641 18.015C85.6729 17.9654 85.591 17.9198 85.5193 17.8794C85.591 17.8391 85.6729 17.7935 85.7641 17.7438C86.132 17.5433 86.6484 17.276 87.242 17.0086C88.4383 16.47 89.9148 15.9472 91.119 15.945Z" fill="#EAC54F" fill-opacity="0.5" stroke="#9A6700" stroke-width="0.46"/>
<circle cx="83.1022" cy="17.8622" r="1.69394" transform="rotate(-180 83.1022 17.8622)" fill="#9A6700" fill-opacity="0.5" stroke="#9A6700" stroke-width="0.46"/>
<path d="M90.2784 51.4242C90.2784 51.4242 89.1623 46.8675 86.9784 45.0399C83.4028 42.0476 77.2155 43.5378 73.6384 40.4399C71.5977 38.6726 70.4984 34.4042 70.4984 34.4042" stroke="#9A6700" stroke-width="0.46"/>
<path d="M78.6496 52.9311C78.6351 52.967 78.6213 53.0006 78.6084 53.0319C78.5833 53.0092 78.5563 52.9849 78.5278 52.9588C78.3289 52.7776 78.051 52.5169 77.7361 52.1998C77.1046 51.5641 76.3305 50.7083 75.7431 49.8161C75.1481 48.9124 74.7786 48.0213 74.8768 47.2997C74.9245 46.9498 75.0831 46.6313 75.3993 46.3576C75.7203 46.0798 76.2128 45.8406 76.9368 45.6761C77.6608 45.5115 78.2084 45.5144 78.6178 45.6262C79.0213 45.7363 79.302 45.955 79.4962 46.25C79.8966 46.8582 79.9485 47.8214 79.8026 48.8935C79.6584 49.952 79.3302 51.0583 79.0355 51.9045C78.8885 52.3266 78.7506 52.6817 78.6496 52.9311Z" fill="#EAC54F" fill-opacity="0.5" stroke="#9A6700" stroke-width="0.46"/>
<rect x="77.6985" y="48.175" width="0.453699" height="2.94904" transform="rotate(167.197 77.6985 48.175)" fill="#FFF8C5"/>
<path d="M88.0419 38.3728C88.0754 38.392 88.1069 38.4103 88.1362 38.4273C88.1103 38.4492 88.0824 38.4725 88.0527 38.4973C87.846 38.6695 87.5498 38.9091 87.1927 39.1778C86.4766 39.7165 85.5231 40.3664 84.559 40.8264C83.5824 41.2923 82.6492 41.5367 81.9479 41.3408C81.6077 41.2457 81.3139 41.0451 81.0859 40.6944C80.8546 40.3385 80.685 39.8179 80.6209 39.0782C80.5568 38.3385 80.6345 37.7965 80.8011 37.4061C80.9654 37.0215 81.2203 36.7733 81.5391 36.6212C82.1963 36.3077 83.1576 36.3879 84.1997 36.679C85.2286 36.9663 86.2796 37.4426 87.0777 37.8502C87.4757 38.0535 87.8087 38.2386 88.0419 38.3728Z" fill="#EAC54F" fill-opacity="0.5" stroke="#9A6700" stroke-width="0.46"/>
<rect x="83.2007" y="38.6652" width="0.453699" height="2.94904" transform="rotate(85.0497 83.2007 38.6652)" fill="#FFF8C5"/>
<path d="M93.6241 63.6232C93.5764 63.7505 93.5343 63.8604 93.4992 63.9507C93.4251 63.8883 93.3355 63.8121 93.2326 63.7232C92.9145 63.4486 92.47 63.0533 91.9653 62.5716C90.9542 61.6066 89.708 60.3013 88.7506 58.9283C87.7852 57.544 87.1486 56.1399 87.2768 54.9644C87.3397 54.3875 87.5876 53.857 88.0911 53.3972C88.5991 52.9332 89.3766 52.5332 90.5081 52.2441C91.6396 51.955 92.5136 51.933 93.182 52.0964C93.8444 52.2583 94.3163 52.6049 94.6483 53.081C95.3246 54.0509 95.4395 55.5882 95.2566 57.266C95.0751 58.93 94.6079 60.6731 94.1836 62.0048C93.9718 62.6696 93.7714 63.2296 93.6241 63.6232Z" fill="#EAC54F" fill-opacity="0.5" stroke="#9A6700" stroke-width="0.46"/>
<rect x="91.8279" y="56.2222" width="0.705754" height="4.5874" transform="rotate(165.667 91.8279 56.2222)" fill="#FFF8C5"/>
<path d="M88.3398 86.6225C88.3398 86.6225 89.1736 82.0057 87.9219 79.4479C85.8725 75.26 79.614 74.1047 77.6062 69.8197C76.4608 67.3751 77.1926 63.0287 77.1926 63.0287" stroke="#9A6700" stroke-width="0.46"/>
<path d="M77.1035 83.2692C77.0756 83.296 77.0494 83.3212 77.0248 83.3445C77.0111 83.3136 76.9964 83.2803 76.9809 83.2449C76.8729 82.9985 76.7251 82.6473 76.5664 82.2295C76.248 81.3919 75.8889 80.2953 75.7152 79.2413C75.5392 78.1737 75.5641 77.2093 75.9473 76.5901C76.1332 76.2898 76.4076 76.0634 76.8079 75.942C77.214 75.8187 77.7613 75.8005 78.4896 75.9447C79.218 76.0889 79.717 76.3142 80.0456 76.5829C80.3694 76.8476 80.5369 77.1615 80.5944 77.51C80.7128 78.2285 80.3684 79.1296 79.799 80.0496C79.2368 80.958 78.487 81.8351 77.8735 82.4883C77.5676 82.8141 77.2972 83.0825 77.1035 83.2692Z" fill="#EAC54F" fill-opacity="0.5" stroke="#9A6700" stroke-width="0.46"/>
<rect x="78.1689" y="78.5374" width="0.453699" height="2.94904" transform="rotate(-168.803 78.1689 78.5374)" fill="#FFF8C5"/>
<path d="M91.6052 73.7897C91.6279 73.8209 91.6492 73.8504 91.6691 73.8779C91.6365 73.8873 91.6016 73.8973 91.5644 73.9078C91.3055 73.9811 90.9374 74.0795 90.5019 74.1797C89.6286 74.3806 88.4932 74.5865 87.4253 74.6146C86.3437 74.643 85.3918 74.4867 84.8308 74.0224C84.5587 73.7973 84.3718 73.4944 84.3063 73.0814C84.2397 72.6622 84.2964 72.1176 84.5388 71.4158C84.7811 70.7139 85.0725 70.2504 85.3835 69.9616C85.69 69.677 86.0239 69.5539 86.3769 69.5447C87.1049 69.5255 87.9505 69.9898 88.7841 70.6796C89.6071 71.3606 90.3735 72.2232 90.9368 72.9201C91.2177 73.2677 91.4466 73.5723 91.6052 73.7897Z" fill="#EAC54F" fill-opacity="0.5" stroke="#9A6700" stroke-width="0.46"/>
<rect x="87.0634" y="72.0877" width="0.453699" height="2.94904" transform="rotate(109.05 87.0634 72.0877)" fill="#FFF8C5"/>
<path d="M86.4345 99.1276C86.3392 99.2246 86.256 99.3078 86.1872 99.376C86.1449 99.2889 86.094 99.1828 86.0362 99.0598C85.8573 98.6795 85.612 98.1376 85.3469 97.4922C84.8156 96.1994 84.2081 94.5001 83.8919 92.8564C83.5731 91.1991 83.5626 89.6575 84.1579 88.6358C84.45 88.1343 84.8922 87.7505 85.5392 87.5352C86.192 87.3179 87.065 87.2688 88.2162 87.4649C89.3675 87.661 90.1749 87.9964 90.719 88.4175C91.2583 88.8349 91.5484 89.3435 91.6581 89.9134C91.8814 91.0745 91.3612 92.5257 90.5116 93.984C89.669 95.4303 88.5332 96.8327 87.6039 97.8767C87.14 98.3979 86.7292 98.828 86.4345 99.1276Z" fill="#EAC54F" fill-opacity="0.5" stroke="#9A6700" stroke-width="0.46"/>
<rect x="87.8038" y="91.6358" width="0.705753" height="4.5874" transform="rotate(-170.333 87.8038 91.6358)" fill="#FFF8C5"/>
<path d="M49.9257 10.7316C49.9257 10.7316 54.4824 11.8477 56.31 14.0316C59.3023 17.6072 57.8121 23.7945 60.91 27.3716C62.6773 29.4123 66.9457 30.5116 66.9457 30.5116" stroke="#9A6700" stroke-width="0.46"/>
<path d="M48.4188 22.3605C48.383 22.375 48.3493 22.3887 48.318 22.4016C48.3407 22.4268 48.3651 22.4537 48.3911 22.4823C48.5723 22.6812 48.833 22.959 49.1501 23.274C49.7859 23.9055 50.6416 24.6796 51.5338 25.267C52.4376 25.862 53.3286 26.2315 54.0502 26.1333C54.4001 26.0856 54.7186 25.927 54.9923 25.6107C55.2701 25.2898 55.5093 24.7973 55.6738 24.0733C55.8384 23.3492 55.8355 22.8017 55.7238 22.3922C55.6136 21.9888 55.395 21.7081 55.1 21.5138C54.4917 21.1134 53.5285 21.0616 52.4564 21.2075C51.3979 21.3516 50.2916 21.6798 49.4454 21.9746C49.0233 22.1216 48.6682 22.2595 48.4188 22.3605Z" fill="#EAC54F" fill-opacity="0.5" stroke="#9A6700" stroke-width="0.46"/>
<rect width="0.453699" height="2.94904" transform="matrix(-0.221604 0.975137 0.975137 0.221604 53.1749 23.3116)" fill="#FFF8C5"/>
<path d="M62.9771 12.9681C62.9579 12.9346 62.9397 12.9032 62.9226 12.8739C62.9008 12.8998 62.8774 12.9276 62.8527 12.9573C62.6804 13.164 62.4408 13.4602 62.1721 13.8174C61.6334 14.5335 60.9835 15.487 60.5235 16.4511C60.0576 17.4276 59.8133 18.3608 60.0092 19.0622C60.1042 19.4023 60.3048 19.6962 60.6555 19.9241C61.0114 20.1554 61.532 20.3251 62.2717 20.3891C63.0114 20.4532 63.5534 20.3756 63.9438 20.2089C64.3284 20.0447 64.5766 19.7897 64.7287 19.4709C65.0422 18.8137 64.962 17.8524 64.6709 16.8103C64.3836 15.7815 63.9073 14.7304 63.4997 13.9324C63.2964 13.5343 63.1113 13.2013 62.9771 12.9681Z" fill="#EAC54F" fill-opacity="0.5" stroke="#9A6700" stroke-width="0.46"/>
<rect width="0.453699" height="2.94904" transform="matrix(-0.99627 -0.086291 -0.086291 0.99627 62.6847 17.8095)" fill="#FFF8C5"/>
<path d="M37.7268 7.38592C37.5995 7.43358 37.4896 7.47567 37.3993 7.51078C37.4617 7.5849 37.5379 7.67453 37.6268 7.77743C37.9014 8.09548 38.2967 8.53996 38.7784 9.04472C39.7434 10.0558 41.0487 11.302 42.4217 12.2594C43.806 13.2248 45.2101 13.8614 46.3856 13.7332C46.9625 13.6703 47.493 13.4224 47.9528 12.9189C48.4168 12.4109 48.8168 11.6334 49.1059 10.5019C49.395 9.3704 49.417 8.49636 49.2536 7.82799C49.0917 7.16564 48.7451 6.69367 48.2691 6.36173C47.2991 5.68539 45.7618 5.57045 44.0841 5.75339C42.42 5.93485 40.6769 6.4021 39.3452 6.8264C38.6804 7.03822 38.1204 7.2386 37.7268 7.38592Z" fill="#EAC54F" fill-opacity="0.5" stroke="#9A6700" stroke-width="0.46"/>
<rect width="0.705753" height="4.5874" transform="matrix(-0.247557 0.968873 0.968873 0.247557 45.1278 9.18219)" fill="#FFF8C5"/>
<path d="M14.7275 12.6701C14.7275 12.6701 19.3442 11.8363 21.9021 13.088C26.09 15.1374 27.2452 21.3959 31.5302 23.4037C33.9748 24.5491 38.3213 23.8173 38.3213 23.8173" stroke="#9A6700" stroke-width="0.46"/>
<path d="M18.0807 23.9064C18.0539 23.9343 18.0287 23.9605 18.0054 23.9851C18.0363 23.9988 18.0696 24.0135 18.105 24.029C18.3514 24.137 18.7026 24.2848 19.1204 24.4435C19.958 24.7619 21.0546 25.121 22.1086 25.2947C23.1762 25.4707 24.1406 25.4458 24.7598 25.0626C25.0601 24.8767 25.2865 24.6023 25.4079 24.202C25.5311 23.7959 25.5493 23.2486 25.4052 22.5203C25.261 21.7919 25.0357 21.2929 24.767 20.9643C24.5023 20.6405 24.1884 20.473 23.8399 20.4156C23.1214 20.2971 22.2203 20.6415 21.3003 21.2109C20.3919 21.7731 19.5148 22.5229 18.8616 23.1364C18.5358 23.4423 18.2674 23.7127 18.0807 23.9064Z" fill="#EAC54F" fill-opacity="0.5" stroke="#9A6700" stroke-width="0.46"/>
<rect width="0.453699" height="2.94904" transform="matrix(0.194178 0.980966 0.980966 -0.194178 22.8124 22.8409)" fill="#FFF8C5"/>
<path d="M27.5602 9.4047C27.529 9.38192 27.4996 9.36061 27.4721 9.34081C27.4627 9.37335 27.4526 9.40829 27.4421 9.44548C27.3688 9.70437 27.2704 10.0724 27.1702 10.508C26.9693 11.3813 26.7634 12.5167 26.7353 13.5845C26.7069 14.6662 26.8633 15.6181 27.3275 16.1791C27.5527 16.4512 27.8555 16.638 28.2686 16.7036C28.6877 16.7702 29.2323 16.7134 29.9342 16.4711C30.636 16.2287 31.0996 15.9374 31.3884 15.6263C31.673 15.3198 31.796 14.986 31.8053 14.6329C31.8244 13.905 31.3601 13.0594 30.6704 12.2258C29.9894 11.4028 29.1267 10.6363 28.4298 10.0731C28.0822 9.79213 27.7776 9.56321 27.5602 9.4047Z" fill="#EAC54F" fill-opacity="0.5" stroke="#9A6700" stroke-width="0.46"/>
<rect width="0.453699" height="2.94904" transform="matrix(-0.945236 0.326389 0.326389 0.945236 29.2622 13.9465)" fill="#FFF8C5"/>
<path d="M2.22227 14.5754C2.12533 14.6707 2.04209 14.7539 1.97388 14.8227C2.06102 14.865 2.16709 14.9159 2.29012 14.9737C2.6704 15.1526 3.2123 15.3979 3.85766 15.663C5.15045 16.1943 6.84975 16.8018 8.49351 17.118C10.1508 17.4368 11.6924 17.4473 12.7141 16.8521C13.2156 16.5599 13.5994 16.1177 13.8147 15.4707C14.0319 14.8179 14.0811 13.9449 13.885 12.7937C13.6888 11.6424 13.3535 10.835 12.9323 10.2909C12.515 9.75164 12.0064 9.46145 11.4365 9.35183C10.2754 9.12846 8.82419 9.64874 7.36591 10.4983C5.91954 11.3409 4.5172 12.4767 3.47319 13.406C2.95202 13.8699 2.52189 14.2807 2.22227 14.5754Z" fill="#EAC54F" fill-opacity="0.5" stroke="#9A6700" stroke-width="0.46"/>
<rect width="0.705753" height="4.5874" transform="matrix(0.167922 0.9858 0.9858 -0.167922 9.71387 13.2061)" fill="#FFF8C5"/>
</svg>
