<svg width="101" height="101" viewBox="0 0 101 101" fill="none" xmlns="http://www.w3.org/2000/svg">
<path d="M94.6194 22.0243C91.7563 21.4866 90.0499 21.5473 88.6548 21.6203C88.5938 21.6235 88.5334 21.6267 88.4736 21.6299C87.0928 21.7034 86.0218 21.7604 84.3336 21.2018C83.5416 20.9397 82.8286 20.3893 82.3063 19.8916C82.058 19.655 81.8564 19.4338 81.7139 19.2678C81.8929 19.2362 82.1305 19.1965 82.4149 19.1538C83.0848 19.0532 84.0131 18.9364 85.0471 18.8717C87.1288 18.7414 89.588 18.8258 91.2433 19.6348C91.2667 19.6463 91.2911 19.6581 91.3163 19.6704C91.7293 19.8718 92.3801 20.1891 93.049 20.6363C93.6113 21.0121 94.1765 21.4734 94.6194 22.0243Z" fill="#4AC26B" fill-opacity="0.5" stroke="#044F1E" stroke-width="0.46"/>
<path d="M68.0973 16.2286C70.9603 16.7663 72.6668 16.7056 74.0619 16.6326C74.1229 16.6294 74.1833 16.6262 74.243 16.623C75.6239 16.5495 76.6949 16.4925 78.3831 17.0511C79.175 17.3132 79.8881 17.8636 80.4104 18.3613C80.6587 18.5979 80.8603 18.8191 81.0027 18.9851C80.8237 19.0167 80.5862 19.0564 80.3018 19.0991C79.6319 19.1997 78.7035 19.3165 77.6695 19.3812C75.5879 19.5115 73.1287 19.4271 71.4733 18.6181C71.4499 18.6066 71.4256 18.5948 71.4004 18.5825C70.9873 18.3811 70.3366 18.0638 69.6676 17.6166C69.1054 17.2408 68.5402 16.7795 68.0973 16.2286Z" fill="#4AC26B" fill-opacity="0.5" stroke="#044F1E" stroke-width="0.46"/>
<path d="M85.2814 31.9314C84.3155 29.183 83.4098 27.7355 82.649 26.5639C82.6157 26.5126 82.5827 26.462 82.5501 26.4118C81.796 25.2527 81.2111 24.3537 80.8509 22.6123C80.6819 21.7954 80.8019 20.9027 80.9718 20.2016C81.0526 19.8682 81.1433 19.5831 81.2159 19.3767C81.3327 19.5159 81.486 19.7018 81.6651 19.9267C82.0872 20.4565 82.6525 21.2021 83.2255 22.0652C84.3792 23.8028 85.5357 25.9748 85.6627 27.8129C85.6645 27.8389 85.6664 27.8659 85.6684 27.8938C85.7005 28.3523 85.7511 29.0744 85.6983 29.8774C85.654 30.5522 85.5371 31.2724 85.2814 31.9314Z" fill="#4AC26B" fill-opacity="0.5" stroke="#044F1E" stroke-width="0.46"/>
<path d="M77.0397 6.06466C78.0056 8.81297 78.9113 10.2605 79.6721 11.4322C79.7054 11.4834 79.7384 11.534 79.771 11.5842C80.5251 12.7433 81.11 13.6424 81.4702 15.3837C81.6393 16.2006 81.5192 17.0933 81.3493 17.7945C81.2686 18.1278 81.1778 18.413 81.1052 18.6194C80.9884 18.4801 80.8351 18.2943 80.656 18.0693C80.2339 17.5395 79.6686 16.7939 79.0956 15.9308C77.9419 14.1932 76.7854 12.0212 76.6584 10.1831C76.6566 10.1572 76.6547 10.1302 76.6527 10.1022C76.6206 9.64376 76.57 8.92157 76.6228 8.11865C76.6671 7.44385 76.784 6.72367 77.0397 6.06466Z" fill="#4AC26B" fill-opacity="0.5" stroke="#044F1E" stroke-width="0.46"/>
<path d="M90.2416 9.091C88.3444 11.3016 87.5437 12.8098 86.9094 14.0545C86.8817 14.1089 86.8543 14.1628 86.8272 14.2161C86.2004 15.4488 85.7143 16.4048 84.3863 17.5875C83.7634 18.1423 82.9302 18.4846 82.2381 18.6881C81.909 18.7848 81.6167 18.8488 81.4017 18.8891C81.4638 18.7183 81.5482 18.4927 81.6534 18.2251C81.9012 17.5946 82.2643 16.7323 82.7252 15.8045C83.6532 13.9366 84.9559 11.8491 86.4842 10.82C86.5058 10.8054 86.5283 10.7903 86.5515 10.7746C86.9325 10.5176 87.5326 10.1126 88.2543 9.7569C88.8609 9.45792 89.543 9.19905 90.2416 9.091Z" fill="#4AC26B" fill-opacity="0.5" stroke="#044F1E" stroke-width="0.46"/>
<path d="M71.9612 29.1619C73.8584 26.9513 74.6591 25.4431 75.2934 24.1984C75.3211 24.144 75.3485 24.0901 75.3756 24.0368C76.0024 22.8041 76.4886 21.8481 77.8165 20.6655C78.4394 20.1106 79.2726 19.7683 79.9647 19.5648C80.2938 19.4681 80.5861 19.4041 80.8012 19.3638C80.739 19.5346 80.6546 19.7602 80.5494 20.0278C80.3016 20.6583 79.9385 21.5206 79.4776 22.4484C78.5496 24.3164 77.2469 26.4039 75.7186 27.4329C75.697 27.4475 75.6746 27.4626 75.6513 27.4783C75.2704 27.7353 74.6702 28.1403 73.9485 28.496C73.3419 28.795 72.6598 29.0539 71.9612 29.1619Z" fill="#4AC26B" fill-opacity="0.5" stroke="#044F1E" stroke-width="0.46"/>
<path d="M90.2783 51.4242C90.2783 51.4242 89.1622 46.8675 86.9783 45.0399C83.4027 42.0476 77.2154 43.5378 73.6383 40.4399C71.5976 38.6726 70.4983 34.4042 70.4983 34.4042" stroke="#044F1E" stroke-width="0.46"/>
<path d="M78.6494 52.9311C78.6349 52.967 78.6212 53.0006 78.6083 53.0319C78.5831 53.0092 78.5561 52.9849 78.5276 52.9588C78.3287 52.7776 78.0509 52.5169 77.7359 52.1998C77.1044 51.5641 76.3303 50.7083 75.7429 49.8161C75.1479 48.9124 74.7784 48.0213 74.8766 47.2997C74.9243 46.9498 75.0829 46.6313 75.3991 46.3576C75.7201 46.0798 76.2126 45.8406 76.9366 45.6761C77.6607 45.5115 78.2082 45.5144 78.6177 45.6262C79.0211 45.7363 79.3018 45.955 79.496 46.25C79.8965 46.8582 79.9483 47.8214 79.8024 48.8935C79.6583 49.952 79.33 51.0583 79.0353 51.9045C78.8883 52.3266 78.7504 52.6817 78.6494 52.9311Z" fill="#4AC26B" fill-opacity="0.5" stroke="#044F1E" stroke-width="0.46"/>
<rect x="77.6982" y="48.175" width="0.453699" height="2.94904" transform="rotate(167.197 77.6982 48.175)" fill="#DAFBE1"/>
<path d="M88.0417 38.3728C88.0753 38.392 88.1067 38.4103 88.136 38.4273C88.1101 38.4492 88.0822 38.4725 88.0525 38.4973C87.8458 38.6695 87.5496 38.9091 87.1925 39.1778C86.4764 39.7165 85.5229 40.3664 84.5588 40.8264C83.5822 41.2923 82.649 41.5367 81.9477 41.3408C81.6075 41.2457 81.3137 41.0451 81.0858 40.6944C80.8545 40.3385 80.6848 39.8179 80.6207 39.0782C80.5566 38.3385 80.6343 37.7965 80.8009 37.4061C80.9652 37.0215 81.2201 36.7733 81.5389 36.6212C82.1961 36.3077 83.1574 36.3879 84.1996 36.679C85.2284 36.9663 86.2794 37.4426 87.0775 37.8502C87.4755 38.0535 87.8085 38.2386 88.0417 38.3728Z" fill="#4AC26B" fill-opacity="0.5" stroke="#044F1E" stroke-width="0.46"/>
<rect x="83.2004" y="38.6652" width="0.453699" height="2.94904" transform="rotate(85.0497 83.2004 38.6652)" fill="#DAFBE1"/>
<path d="M93.624 63.6232C93.5763 63.7505 93.5342 63.8604 93.4991 63.9507C93.425 63.8883 93.3353 63.8121 93.2324 63.7232C92.9144 63.4486 92.4699 63.0533 91.9652 62.5716C90.954 61.6066 89.7079 60.3013 88.7505 58.9283C87.7851 57.544 87.1485 56.1399 87.2767 54.9644C87.3396 54.3875 87.5875 53.857 88.0909 53.3972C88.599 52.9332 89.3765 52.5332 90.508 52.2441C91.6395 51.955 92.5135 51.933 93.1819 52.0964C93.8442 52.2583 94.3162 52.6049 94.6481 53.081C95.3245 54.0509 95.4394 55.5882 95.2565 57.266C95.075 58.93 94.6078 60.6731 94.1835 62.0048C93.9717 62.6696 93.7713 63.2296 93.624 63.6232Z" fill="#4AC26B" fill-opacity="0.5" stroke="#044F1E" stroke-width="0.46"/>
<rect x="91.8278" y="56.2222" width="0.705754" height="4.5874" transform="rotate(165.667 91.8278 56.2222)" fill="#DAFBE1"/>
<path d="M88.3398 86.6225C88.3398 86.6225 89.1736 82.0057 87.9219 79.4479C85.8725 75.26 79.614 74.1047 77.6062 69.8197C76.4608 67.3751 77.1926 63.0287 77.1926 63.0287" stroke="#044F1E" stroke-width="0.46"/>
<path d="M77.1035 83.2692C77.0757 83.296 77.0494 83.3212 77.0249 83.3445C77.0111 83.3136 76.9964 83.2803 76.9809 83.2449C76.873 82.9985 76.7252 82.6473 76.5664 82.2295C76.2481 81.3919 75.889 80.2953 75.7153 79.2413C75.5393 78.1737 75.5642 77.2093 75.9474 76.5901C76.1332 76.2898 76.4077 76.0634 76.8079 75.942C77.2141 75.8187 77.7613 75.8005 78.4897 75.9447C79.2181 76.0889 79.7171 76.3142 80.0457 76.5829C80.3695 76.8476 80.537 77.1615 80.5944 77.51C80.7128 78.2285 80.3684 79.1296 79.799 80.0496C79.2369 80.958 78.4871 81.8351 77.8736 82.4883C77.5676 82.8141 77.2972 83.0825 77.1035 83.2692Z" fill="#4AC26B" fill-opacity="0.5" stroke="#044F1E" stroke-width="0.46"/>
<rect x="78.169" y="78.5374" width="0.453699" height="2.94904" transform="rotate(-168.803 78.169 78.5374)" fill="#DAFBE1"/>
<path d="M91.6052 73.7897C91.628 73.8209 91.6493 73.8504 91.6691 73.8779C91.6366 73.8873 91.6016 73.8973 91.5644 73.9078C91.3056 73.9811 90.9375 74.0795 90.5019 74.1797C89.6286 74.3806 88.4932 74.5865 87.4254 74.6146C86.3438 74.643 85.3919 74.4867 84.8308 74.0224C84.5587 73.7973 84.3719 73.4944 84.3063 73.0814C84.2397 72.6622 84.2965 72.1176 84.5388 71.4158C84.7812 70.7139 85.0726 70.2504 85.3836 69.9616C85.6901 69.677 86.0239 69.5539 86.377 69.5447C87.1049 69.5255 87.9505 69.9898 88.7841 70.6796C89.6071 71.3606 90.3736 72.2232 90.9369 72.9201C91.2178 73.2677 91.4467 73.5723 91.6052 73.7897Z" fill="#4AC26B" fill-opacity="0.5" stroke="#044F1E" stroke-width="0.46"/>
<rect x="87.0634" y="72.0877" width="0.453699" height="2.94904" transform="rotate(109.05 87.0634 72.0877)" fill="#DAFBE1"/>
<path d="M86.4346 99.1276C86.3392 99.2246 86.2561 99.3078 86.1873 99.376C86.145 99.2889 86.0941 99.1828 86.0362 99.0598C85.8574 98.6795 85.6121 98.1376 85.3469 97.4922C84.8157 96.1994 84.2082 94.5001 83.892 92.8564C83.5732 91.1991 83.5627 89.6575 84.1579 88.6358C84.45 88.1343 84.8922 87.7505 85.5392 87.5352C86.1921 87.3179 87.065 87.2688 88.2163 87.4649C89.3675 87.661 90.175 87.9964 90.7191 88.4175C91.2583 88.8349 91.5485 89.3435 91.6581 89.9134C91.8815 91.0745 91.3612 92.5257 90.5117 93.984C89.6691 95.4303 88.5333 96.8327 87.604 97.8767C87.1401 98.3979 86.7292 98.828 86.4346 99.1276Z" fill="#4AC26B" fill-opacity="0.5" stroke="#044F1E" stroke-width="0.46"/>
<rect x="87.8039" y="91.6358" width="0.705753" height="4.5874" transform="rotate(-170.333 87.8039 91.6358)" fill="#DAFBE1"/>
<path d="M49.9256 10.7316C49.9256 10.7316 54.4823 11.8477 56.3099 14.0316C59.3022 17.6072 57.812 23.7945 60.9099 27.3716C62.6772 29.4123 66.9456 30.5116 66.9456 30.5116" stroke="#044F1E" stroke-width="0.46"/>
<path d="M48.4187 22.3605C48.3828 22.375 48.3492 22.3887 48.3179 22.4016C48.3405 22.4268 48.3649 22.4537 48.391 22.4823C48.5722 22.6812 48.8329 22.959 49.15 23.274C49.7857 23.9055 50.6415 24.6796 51.5337 25.267C52.4374 25.862 53.3285 26.2315 54.0501 26.1333C54.4 26.0856 54.7185 25.927 54.9922 25.6107C55.27 25.2898 55.5092 24.7973 55.6737 24.0733C55.8383 23.3492 55.8354 22.8017 55.7236 22.3922C55.6135 21.9888 55.3948 21.7081 55.0998 21.5138C54.4916 21.1134 53.5284 21.0616 52.4563 21.2075C51.3978 21.3516 50.2915 21.6798 49.4453 21.9746C49.0232 22.1216 48.668 22.2595 48.4187 22.3605Z" fill="#4AC26B" fill-opacity="0.5" stroke="#044F1E" stroke-width="0.46"/>
<rect width="0.453699" height="2.94904" transform="matrix(-0.221604 0.975137 0.975137 0.221604 53.1747 23.3116)" fill="#DAFBE1"/>
<path d="M62.977 12.9681C62.9578 12.9346 62.9395 12.9032 62.9225 12.8739C62.9006 12.8998 62.8773 12.9276 62.8525 12.9573C62.6803 13.164 62.4407 13.4602 62.172 13.8174C61.6333 14.5335 60.9833 15.487 60.5234 16.4511C60.0574 17.4276 59.8131 18.3608 60.009 19.0622C60.104 19.4023 60.3047 19.6962 60.6554 19.9241C61.0113 20.1554 61.5318 20.3251 62.2716 20.3891C63.0113 20.4532 63.5533 20.3756 63.9436 20.2089C64.3283 20.0447 64.5765 19.7897 64.7286 19.4709C65.0421 18.8137 64.9619 17.8524 64.6708 16.8103C64.3835 15.7815 63.9072 14.7304 63.4996 13.9324C63.2963 13.5343 63.1112 13.2013 62.977 12.9681Z" fill="#4AC26B" fill-opacity="0.5" stroke="#044F1E" stroke-width="0.46"/>
<rect width="0.453699" height="2.94904" transform="matrix(-0.99627 -0.086291 -0.086291 0.99627 62.6846 17.8095)" fill="#DAFBE1"/>
<path d="M37.7265 7.38592C37.5992 7.43358 37.4894 7.47567 37.3991 7.51078C37.4614 7.5849 37.5377 7.67453 37.6265 7.77743C37.9012 8.09548 38.2965 8.53996 38.7782 9.04472C39.7431 10.0558 41.0484 11.302 42.4215 12.2594C43.8058 13.2248 45.2098 13.8614 46.3853 13.7332C46.9622 13.6703 47.4928 13.4224 47.9526 12.9189C48.4166 12.4109 48.8165 11.6334 49.1056 10.5019C49.3947 9.3704 49.4168 8.49636 49.2534 7.82799C49.0914 7.16564 48.7448 6.69367 48.2688 6.36173C47.2989 5.68539 45.7616 5.57045 44.0838 5.75339C42.4198 5.93485 40.6767 6.4021 39.345 6.8264C38.6802 7.03822 38.1201 7.2386 37.7265 7.38592Z" fill="#4AC26B" fill-opacity="0.5" stroke="#044F1E" stroke-width="0.46"/>
<rect width="0.705753" height="4.5874" transform="matrix(-0.247557 0.968873 0.968873 0.247557 45.1275 9.18219)" fill="#DAFBE1"/>
<path d="M14.7273 12.6701C14.7273 12.6701 19.344 11.8363 21.9019 13.088C26.0898 15.1374 27.245 21.3959 31.5301 23.4037C33.9746 24.5491 38.3211 23.8173 38.3211 23.8173" stroke="#044F1E" stroke-width="0.46"/>
<path d="M18.0806 23.9064C18.0538 23.9343 18.0287 23.9605 18.0053 23.9851C18.0363 23.9988 18.0695 24.0135 18.1049 24.029C18.3513 24.137 18.7025 24.2848 19.1203 24.4435C19.9579 24.7619 21.0546 25.121 22.1086 25.2947C23.1762 25.4707 24.1405 25.4458 24.7597 25.0626C25.06 24.8767 25.2865 24.6023 25.4079 24.202C25.5311 23.7959 25.5493 23.2486 25.4051 22.5203C25.2609 21.7919 25.0356 21.2929 24.767 20.9643C24.5022 20.6405 24.1883 20.473 23.8398 20.4156C23.1213 20.2971 22.2203 20.6415 21.3002 21.2109C20.3919 21.7731 19.5147 22.5229 18.8615 23.1364C18.5357 23.4423 18.2674 23.7127 18.0806 23.9064Z" fill="#4AC26B" fill-opacity="0.5" stroke="#044F1E" stroke-width="0.46"/>
<rect width="0.453699" height="2.94904" transform="matrix(0.194178 0.980966 0.980966 -0.194178 22.8125 22.8409)" fill="#DAFBE1"/>
<path d="M27.5601 9.4047C27.5289 9.38192 27.4994 9.36061 27.4719 9.34081C27.4625 9.37335 27.4525 9.40829 27.442 9.44548C27.3687 9.70437 27.2703 10.0724 27.1701 10.508C26.9692 11.3813 26.7633 12.5167 26.7352 13.5845C26.7068 14.6662 26.8632 15.6181 27.3274 16.1791C27.5526 16.4512 27.8554 16.638 28.2684 16.7036C28.6876 16.7702 29.2322 16.7134 29.9341 16.4711C30.6359 16.2287 31.0995 15.9374 31.3883 15.6263C31.6728 15.3198 31.7959 14.986 31.8052 14.6329C31.8243 13.905 31.36 13.0594 30.6702 12.2258C29.9892 11.4028 29.1266 10.6363 28.4297 10.0731C28.0821 9.79213 27.7775 9.56321 27.5601 9.4047Z" fill="#4AC26B" fill-opacity="0.5" stroke="#044F1E" stroke-width="0.46"/>
<rect width="0.453699" height="2.94904" transform="matrix(-0.945236 0.326389 0.326389 0.945236 29.2621 13.9465)" fill="#DAFBE1"/>
<path d="M2.22221 14.5754C2.12527 14.6707 2.04203 14.7539 1.97382 14.8227C2.06096 14.865 2.16703 14.9159 2.29006 14.9737C2.67034 15.1526 3.21224 15.3979 3.8576 15.663C5.15039 16.1943 6.84968 16.8018 8.49345 17.118C10.1507 17.4368 11.6923 17.4473 12.7141 16.8521C13.2155 16.5599 13.5993 16.1177 13.8146 15.4707C14.0319 14.8179 14.081 13.9449 13.8849 12.7937C13.6888 11.6424 13.3534 10.835 12.9323 10.2909C12.5149 9.75164 12.0063 9.46145 11.4365 9.35183C10.2753 9.12846 8.82413 9.64874 7.36585 10.4983C5.91948 11.3409 4.51714 12.4767 3.47313 13.406C2.95196 13.8699 2.52183 14.2807 2.22221 14.5754Z" fill="#4AC26B" fill-opacity="0.5" stroke="#044F1E" stroke-width="0.46"/>
<rect width="0.705753" height="4.5874" transform="matrix(0.167922 0.9858 0.9858 -0.167922 9.71393 13.2061)" fill="#DAFBE1"/>
</svg>
