<svg width="101" height="101" viewBox="0 0 101 101" fill="none" xmlns="http://www.w3.org/2000/svg">
<rect x="86.6927" y="32.1599" width="6.9" height="13.8" rx="3.45" transform="rotate(-180 86.6927 32.1599)" fill="#FFADDA" fill-opacity="0.5"/>
<rect x="86.6927" y="17.4399" width="6.9" height="13.8" rx="3.45" transform="rotate(-180 86.6927 17.4399)" fill="#FFADDA" fill-opacity="0.5"/>
<rect x="97.5027" y="14.4499" width="6.9" height="13.8" rx="3.45" transform="rotate(90 97.5027 14.4499)" fill="#FFADDA" fill-opacity="0.5"/>
<rect x="82.7827" y="14.4499" width="6.9" height="13.8" rx="3.45" transform="rotate(90 82.7827 14.4499)" fill="#FFADDA" fill-opacity="0.5"/>
<rect x="95.7655" y="25.5437" width="6.9" height="13.8" rx="3.45" transform="rotate(135 95.7655 25.5437)" fill="#FFADDA" fill-opacity="0.5"/>
<rect x="85.3569" y="15.1351" width="6.9" height="13.8" rx="3.45" transform="rotate(135 85.3569 15.1351)" fill="#FFADDA" fill-opacity="0.5"/>
<rect x="90.8865" y="5.37704" width="6.9" height="13.8" rx="3.45" transform="rotate(45 90.8865 5.37704)" fill="#FFADDA" fill-opacity="0.5"/>
<rect x="80.4779" y="15.7857" width="6.9" height="13.8" rx="3.45" transform="rotate(45 80.4779 15.7857)" fill="#FFADDA" fill-opacity="0.5"/>
<rect x="86.4627" y="31.9299" width="6.44" height="13.34" rx="3.22" transform="rotate(-180 86.4627 31.9299)" stroke="#99286E" stroke-width="0.46"/>
<rect x="86.4627" y="17.2099" width="6.44" height="13.34" rx="3.22" transform="rotate(-180 86.4627 17.2099)" stroke="#99286E" stroke-width="0.46"/>
<rect x="97.2727" y="14.6799" width="6.44" height="13.34" rx="3.22" transform="rotate(90 97.2727 14.6799)" stroke="#99286E" stroke-width="0.46"/>
<rect x="82.5527" y="14.6799" width="6.44" height="13.34" rx="3.22" transform="rotate(90 82.5527 14.6799)" stroke="#99286E" stroke-width="0.46"/>
<rect x="95.4403" y="25.5437" width="6.44" height="13.34" rx="3.22" transform="rotate(135 95.4403 25.5437)" stroke="#99286E" stroke-width="0.46"/>
<rect x="85.0316" y="15.1351" width="6.44" height="13.34" rx="3.22" transform="rotate(135 85.0316 15.1351)" stroke="#99286E" stroke-width="0.46"/>
<rect x="90.8865" y="5.70231" width="6.44" height="13.34" rx="3.22" transform="rotate(45 90.8865 5.70231)" stroke="#99286E" stroke-width="0.46"/>
<rect x="80.4779" y="16.1109" width="6.44" height="13.34" rx="3.22" transform="rotate(45 80.4779 16.1109)" stroke="#99286E" stroke-width="0.46"/>
<path d="M90.2783 51.4242C90.2783 51.4242 89.1622 46.8675 86.9783 45.0399C83.4027 42.0476 77.2154 43.5378 73.6383 40.4399C71.5976 38.6726 70.4983 34.4042 70.4983 34.4042" stroke="#99286E" stroke-width="0.46"/>
<path d="M78.6495 52.9311C78.6349 52.967 78.6212 53.0006 78.6083 53.0319C78.5831 53.0092 78.5562 52.9849 78.5276 52.9588C78.3287 52.7776 78.0509 52.5169 77.7359 52.1998C77.1044 51.5641 76.3303 50.7083 75.7429 49.8161C75.1479 48.9124 74.7784 48.0213 74.8767 47.2997C74.9243 46.9498 75.0829 46.6313 75.3992 46.3576C75.7201 46.0798 76.2126 45.8406 76.9367 45.6761C77.6607 45.5115 78.2082 45.5144 78.6177 45.6262C79.0212 45.7363 79.3019 45.955 79.4961 46.25C79.8965 46.8582 79.9484 47.8214 79.8024 48.8935C79.6583 49.952 79.3301 51.0583 79.0353 51.9045C78.8884 52.3266 78.7505 52.6817 78.6495 52.9311Z" fill="#FFADDA" fill-opacity="0.5" stroke="#99286E" stroke-width="0.46"/>
<rect x="77.6983" y="48.1751" width="0.453699" height="2.94904" transform="rotate(167.197 77.6983 48.1751)" fill="#FFEFF7"/>
<path d="M88.0418 38.3728C88.0753 38.392 88.1068 38.4103 88.136 38.4273C88.1101 38.4492 88.0823 38.4725 88.0526 38.4973C87.8459 38.6695 87.5497 38.9091 87.1925 39.1778C86.4765 39.7165 85.523 40.3664 84.5588 40.8264C83.5823 41.2923 82.6491 41.5367 81.9477 41.3408C81.6076 41.2457 81.3137 41.0451 81.0858 40.6944C80.8545 40.3385 80.6848 39.8179 80.6208 39.0782C80.5567 38.3385 80.6343 37.7965 80.801 37.4061C80.9652 37.0215 81.2202 36.7733 81.539 36.6212C82.1962 36.3077 83.1575 36.3879 84.1996 36.679C85.2285 36.9663 86.2795 37.4426 87.0775 37.8502C87.4756 38.0535 87.8086 38.2386 88.0418 38.3728Z" fill="#FFADDA" fill-opacity="0.5" stroke="#99286E" stroke-width="0.46"/>
<rect x="83.2003" y="38.6652" width="0.453699" height="2.94904" transform="rotate(85.0497 83.2003 38.6652)" fill="#FFEFF7"/>
<path d="M93.624 63.6232C93.5763 63.7505 93.5342 63.8604 93.4991 63.9507C93.425 63.8883 93.3354 63.8121 93.2325 63.7232C92.9144 63.4486 92.4699 63.0533 91.9652 62.5716C90.9541 61.6066 89.7079 60.3013 88.7505 58.9283C87.7852 57.544 87.1485 56.1399 87.2767 54.9644C87.3396 54.3875 87.5875 53.857 88.091 53.3972C88.599 52.9332 89.3765 52.5332 90.508 52.2441C91.6395 51.955 92.5135 51.933 93.1819 52.0964C93.8443 52.2583 94.3162 52.6049 94.6482 53.081C95.3245 54.0509 95.4395 55.5882 95.2565 57.266C95.0751 58.93 94.6078 60.6731 94.1835 62.0048C93.9717 62.6696 93.7713 63.2296 93.624 63.6232Z" fill="#FFADDA" fill-opacity="0.5" stroke="#99286E" stroke-width="0.46"/>
<rect x="91.8277" y="56.2222" width="0.705754" height="4.5874" transform="rotate(165.667 91.8277 56.2222)" fill="#FFEFF7"/>
<path d="M88.3399 86.6225C88.3399 86.6225 89.1737 82.0057 87.9219 79.4479C85.8725 75.26 79.614 74.1047 77.6062 69.8197C76.4608 67.3751 77.1926 63.0287 77.1926 63.0287" stroke="#99286E" stroke-width="0.46"/>
<path d="M77.1035 83.2692C77.0757 83.296 77.0494 83.3212 77.0249 83.3445C77.0111 83.3136 76.9964 83.2803 76.9809 83.2449C76.873 82.9985 76.7252 82.6473 76.5664 82.2295C76.2481 81.3919 75.889 80.2953 75.7153 79.2413C75.5393 78.1737 75.5642 77.2093 75.9474 76.5901C76.1332 76.2898 76.4077 76.0634 76.8079 75.942C77.2141 75.8187 77.7613 75.8005 78.4897 75.9447C79.2181 76.0889 79.7171 76.3142 80.0457 76.5829C80.3695 76.8476 80.537 77.1615 80.5944 77.51C80.7128 78.2285 80.3684 79.1296 79.799 80.0496C79.2369 80.958 78.4871 81.8351 77.8736 82.4883C77.5676 82.8141 77.2972 83.0825 77.1035 83.2692Z" fill="#FFADDA" fill-opacity="0.5" stroke="#99286E" stroke-width="0.46"/>
<rect x="78.169" y="78.5374" width="0.453699" height="2.94904" transform="rotate(-168.803 78.169 78.5374)" fill="#FFEFF7"/>
<path d="M91.6053 73.7897C91.6281 73.8209 91.6494 73.8504 91.6692 73.8779C91.6366 73.8873 91.6017 73.8973 91.5645 73.9078C91.3056 73.9811 90.9375 74.0795 90.502 74.1797C89.6287 74.3806 88.4933 74.5865 87.4254 74.6146C86.3438 74.643 85.3919 74.4867 84.8309 74.0224C84.5588 73.7973 84.372 73.4944 84.3064 73.0814C84.2398 72.6622 84.2966 72.1176 84.5389 71.4158C84.7812 70.7139 85.0726 70.2504 85.3836 69.9616C85.6901 69.677 86.024 69.5539 86.3771 69.5447C87.105 69.5255 87.9506 69.9898 88.7842 70.6796C89.6072 71.3606 90.3737 72.2232 90.9369 72.9201C91.2178 73.2677 91.4468 73.5723 91.6053 73.7897Z" fill="#FFADDA" fill-opacity="0.5" stroke="#99286E" stroke-width="0.46"/>
<rect x="87.0635" y="72.0877" width="0.453699" height="2.94904" transform="rotate(109.05 87.0635 72.0877)" fill="#FFEFF7"/>
<path d="M86.4346 99.1276C86.3393 99.2246 86.2561 99.3078 86.1873 99.376C86.145 99.2889 86.0941 99.1828 86.0363 99.0598C85.8574 98.6795 85.6121 98.1376 85.3469 97.4922C84.8157 96.1994 84.2082 94.5001 83.892 92.8564C83.5732 91.1991 83.5627 89.6575 84.1579 88.6358C84.4501 88.1343 84.8923 87.7505 85.5393 87.5352C86.1921 87.3179 87.0651 87.2688 88.2163 87.4649C89.3676 87.661 90.175 87.9964 90.7191 88.4175C91.2583 88.8349 91.5485 89.3435 91.6582 89.9134C91.8815 91.0745 91.3613 92.5257 90.5117 93.984C89.6691 95.4303 88.5333 96.8327 87.604 97.8767C87.1401 98.3979 86.7293 98.828 86.4346 99.1276Z" fill="#FFADDA" fill-opacity="0.5" stroke="#99286E" stroke-width="0.46"/>
<rect x="87.8039" y="91.6358" width="0.705753" height="4.5874" transform="rotate(-170.333 87.8039 91.6358)" fill="#FFEFF7"/>
<path d="M49.9256 10.7316C49.9256 10.7316 54.4823 11.8477 56.3099 14.0316C59.3022 17.6072 57.812 23.7945 60.9099 27.3716C62.6773 29.4123 66.9456 30.5116 66.9456 30.5116" stroke="#99286E" stroke-width="0.46"/>
<path d="M48.4188 22.3605C48.3829 22.375 48.3493 22.3887 48.318 22.4016C48.3406 22.4268 48.365 22.4537 48.3911 22.4823C48.5723 22.6812 48.833 22.959 49.1501 23.274C49.7858 23.9055 50.6416 24.6796 51.5338 25.267C52.4375 25.862 53.3286 26.2315 54.0501 26.1333C54.4001 26.0856 54.7186 25.927 54.9923 25.6107C55.2701 25.2898 55.5093 24.7973 55.6738 24.0733C55.8384 23.3492 55.8355 22.8017 55.7237 22.3922C55.6136 21.9888 55.3949 21.7081 55.0999 21.5138C54.4917 21.1134 53.5285 21.0616 52.4563 21.2075C51.3979 21.3516 50.2916 21.6798 49.4454 21.9746C49.0233 22.1216 48.6681 22.2595 48.4188 22.3605Z" fill="#FFADDA" fill-opacity="0.5" stroke="#99286E" stroke-width="0.46"/>
<rect width="0.453699" height="2.94904" transform="matrix(-0.221604 0.975137 0.975137 0.221604 53.1749 23.3116)" fill="#FFEFF7"/>
<path d="M62.9771 12.9681C62.9578 12.9346 62.9396 12.9032 62.9225 12.8739C62.9007 12.8998 62.8773 12.9276 62.8526 12.9573C62.6804 13.164 62.4407 13.4602 62.172 13.8174C61.6333 14.5335 60.9834 15.487 60.5234 16.4511C60.0575 17.4276 59.8132 18.3608 60.0091 19.0622C60.1041 19.4023 60.3048 19.6962 60.6554 19.9241C61.0113 20.1554 61.5319 20.3251 62.2716 20.3891C63.0114 20.4532 63.5534 20.3756 63.9437 20.2089C64.3283 20.0447 64.5765 19.7897 64.7286 19.4709C65.0422 18.8137 64.962 17.8524 64.6709 16.8103C64.3835 15.7815 63.9072 14.7304 63.4996 13.9324C63.2963 13.5343 63.1112 13.2013 62.9771 12.9681Z" fill="#FFADDA" fill-opacity="0.5" stroke="#99286E" stroke-width="0.46"/>
<rect width="0.453699" height="2.94904" transform="matrix(-0.99627 -0.086291 -0.086291 0.99627 62.6847 17.8095)" fill="#FFEFF7"/>
<path d="M37.7266 7.38592C37.5993 7.43358 37.4894 7.47567 37.3992 7.51078C37.4615 7.5849 37.5377 7.67453 37.6266 7.77743C37.9013 8.09548 38.2965 8.53996 38.7783 9.04472C39.7432 10.0558 41.0485 11.302 42.4215 12.2594C43.8059 13.2248 45.2099 13.8614 46.3854 13.7332C46.9623 13.6703 47.4928 13.4224 47.9527 12.9189C48.4167 12.4109 48.8166 11.6334 49.1057 10.5019C49.3948 9.3704 49.4169 8.49636 49.2535 7.82799C49.0915 7.16564 48.7449 6.69367 48.2689 6.36173C47.299 5.68539 45.7616 5.57045 44.0839 5.75339C42.4199 5.93485 40.6768 6.4021 39.3451 6.8264C38.6803 7.03822 38.1202 7.2386 37.7266 7.38592Z" fill="#FFADDA" fill-opacity="0.5" stroke="#99286E" stroke-width="0.46"/>
<rect width="0.705753" height="4.5874" transform="matrix(-0.247557 0.968873 0.968873 0.247557 45.1276 9.18219)" fill="#FFEFF7"/>
<path d="M14.7274 12.6701C14.7274 12.6701 19.3441 11.8363 21.902 13.088C26.0899 15.1374 27.2451 21.3959 31.5302 23.4037C33.9747 24.5491 38.3212 23.8173 38.3212 23.8173" stroke="#99286E" stroke-width="0.46"/>
<path d="M18.0806 23.9064C18.0538 23.9343 18.0287 23.9605 18.0053 23.9851C18.0363 23.9988 18.0695 24.0135 18.1049 24.029C18.3513 24.137 18.7025 24.2848 19.1203 24.4435C19.9579 24.7619 21.0546 25.121 22.1086 25.2947C23.1762 25.4707 24.1405 25.4458 24.7597 25.0626C25.06 24.8767 25.2865 24.6023 25.4079 24.202C25.5311 23.7959 25.5493 23.2486 25.4051 22.5203C25.2609 21.7919 25.0356 21.2929 24.767 20.9643C24.5022 20.6405 24.1883 20.473 23.8398 20.4156C23.1213 20.2971 22.2203 20.6415 21.3002 21.2109C20.3919 21.7731 19.5147 22.5229 18.8615 23.1364C18.5357 23.4423 18.2674 23.7127 18.0806 23.9064Z" fill="#FFADDA" fill-opacity="0.5" stroke="#99286E" stroke-width="0.46"/>
<rect width="0.453699" height="2.94904" transform="matrix(0.194178 0.980966 0.980966 -0.194178 22.8124 22.8409)" fill="#FFEFF7"/>
<path d="M27.5601 9.4047C27.5289 9.38192 27.4995 9.36061 27.472 9.34081C27.4626 9.37335 27.4526 9.40829 27.442 9.44548C27.3687 9.70437 27.2703 10.0724 27.1701 10.508C26.9692 11.3813 26.7633 12.5167 26.7353 13.5845C26.7068 14.6662 26.8632 15.6181 27.3274 16.1791C27.5526 16.4512 27.8554 16.638 28.2685 16.7036C28.6877 16.7702 29.2322 16.7134 29.9341 16.4711C30.6359 16.2287 31.0995 15.9374 31.3883 15.6263C31.6729 15.3198 31.7959 14.986 31.8052 14.6329C31.8243 13.905 31.36 13.0594 30.6703 12.2258C29.9893 11.4028 29.1266 10.6363 28.4297 10.0731C28.0821 9.79213 27.7775 9.56321 27.5601 9.4047Z" fill="#FFADDA" fill-opacity="0.5" stroke="#99286E" stroke-width="0.46"/>
<rect width="0.453699" height="2.94904" transform="matrix(-0.945236 0.326389 0.326389 0.945236 29.2622 13.9465)" fill="#FFEFF7"/>
<path d="M2.22224 14.5754C2.1253 14.6707 2.04206 14.7539 1.97385 14.8227C2.06099 14.865 2.16706 14.9159 2.29009 14.9737C2.67037 15.1526 3.21227 15.3979 3.85763 15.663C5.15042 16.1943 6.84972 16.8018 8.49348 17.118C10.1508 17.4368 11.6924 17.4473 12.7141 16.8521C13.2155 16.5599 13.5994 16.1177 13.8147 15.4707C14.0319 14.8179 14.081 13.9449 13.8849 12.7937C13.6888 11.6424 13.3535 10.835 12.9323 10.2909C12.515 9.75164 12.0064 9.46145 11.4365 9.35183C10.2753 9.12846 8.82416 9.64874 7.36588 10.4983C5.91951 11.3409 4.51717 12.4767 3.47316 13.406C2.95199 13.8699 2.52186 14.2807 2.22224 14.5754Z" fill="#FFADDA" fill-opacity="0.5" stroke="#99286E" stroke-width="0.46"/>
<rect width="0.705753" height="4.5874" transform="matrix(0.167922 0.9858 0.9858 -0.167922 9.71399 13.2061)" fill="#FFEFF7"/>
</svg>
