<svg width="218" height="219" viewBox="0 0 218 219" fill="none" xmlns="http://www.w3.org/2000/svg">
<rect x="186.897" y="69.9128" width="15" height="30" rx="7.5" transform="rotate(-180 186.897 69.9128)" fill="#FFADDA" fill-opacity="0.5"/>
<rect x="186.897" y="37.9128" width="15" height="30" rx="7.5" transform="rotate(-180 186.897 37.9128)" fill="#FFADDA" fill-opacity="0.5"/>
<rect x="210.397" y="31.4128" width="15" height="30" rx="7.5" transform="rotate(90 210.397 31.4128)" fill="#FFADDA" fill-opacity="0.5"/>
<rect x="178.397" y="31.4128" width="15" height="30" rx="7.5" transform="rotate(90 178.397 31.4128)" fill="#FFADDA" fill-opacity="0.5"/>
<rect x="206.621" y="55.5298" width="15" height="30" rx="7.5" transform="rotate(135 206.621 55.5298)" fill="#FFADDA" fill-opacity="0.5"/>
<rect x="183.993" y="32.9024" width="15" height="30" rx="7.5" transform="rotate(135 183.993 32.9024)" fill="#FFADDA" fill-opacity="0.5"/>
<rect x="196.014" y="11.6892" width="15" height="30" rx="7.5" transform="rotate(45 196.014 11.6892)" fill="#FFADDA" fill-opacity="0.5"/>
<rect x="173.387" y="34.3166" width="15" height="30" rx="7.5" transform="rotate(45 173.387 34.3166)" fill="#FFADDA" fill-opacity="0.5"/>
<rect x="186.397" y="69.4128" width="14" height="29" rx="7" transform="rotate(-180 186.397 69.4128)" stroke="#99286E"/>
<rect x="186.397" y="37.4128" width="14" height="29" rx="7" transform="rotate(-180 186.397 37.4128)" stroke="#99286E"/>
<rect x="209.897" y="31.9128" width="14" height="29" rx="7" transform="rotate(90 209.897 31.9128)" stroke="#99286E"/>
<rect x="177.897" y="31.9128" width="14" height="29" rx="7" transform="rotate(90 177.897 31.9128)" stroke="#99286E"/>
<rect x="205.914" y="55.5298" width="14" height="29" rx="7" transform="rotate(135 205.914 55.5298)" stroke="#99286E"/>
<rect x="183.286" y="32.9024" width="14" height="29" rx="7" transform="rotate(135 183.286 32.9024)" stroke="#99286E"/>
<rect x="196.014" y="12.3963" width="14" height="29" rx="7" transform="rotate(45 196.014 12.3963)" stroke="#99286E"/>
<rect x="173.387" y="35.0237" width="14" height="29" rx="7" transform="rotate(45 173.387 35.0237)" stroke="#99286E"/>
<path d="M194.692 111.792C194.692 111.792 192.266 101.886 187.518 97.9128C179.745 91.4079 166.294 94.6474 158.518 87.9128C154.082 84.0708 151.692 74.7918 151.692 74.7918" stroke="#99286E"/>
<path d="M169.412 115.068C169.38 115.146 169.35 115.219 169.322 115.287C169.268 115.237 169.209 115.184 169.147 115.128C168.715 114.734 168.111 114.167 167.426 113.478C166.053 112.096 164.37 110.235 163.093 108.296C161.8 106.331 160.997 104.394 161.21 102.825C161.314 102.065 161.659 101.372 162.346 100.777C163.044 100.173 164.114 99.6535 165.688 99.2958C167.262 98.9381 168.453 98.9443 169.343 99.1873C170.22 99.4267 170.83 99.902 171.252 100.543C172.123 101.866 172.236 103.96 171.918 106.29C171.605 108.591 170.891 110.996 170.251 112.836C169.931 113.753 169.631 114.525 169.412 115.068Z" fill="#FFADDA" fill-opacity="0.5" stroke="#99286E"/>
<rect x="167.344" y="104.728" width="0.986301" height="6.41096" transform="rotate(167.197 167.344 104.728)" fill="#FFEFF7"/>
<path d="M189.83 83.419C189.903 83.4609 189.971 83.5005 190.035 83.5376C189.979 83.5851 189.918 83.6359 189.853 83.6897C189.404 84.0641 188.76 84.585 187.984 85.1691C186.427 86.3403 184.354 87.7531 182.258 88.7531C180.135 89.7659 178.107 90.2971 176.582 89.8712C175.843 89.6646 175.204 89.2284 174.708 88.4661C174.205 87.6925 173.837 86.5607 173.697 84.9526C173.558 83.3445 173.727 82.1663 174.089 81.3177C174.446 80.4815 175 79.942 175.693 79.6113C177.122 78.9297 179.212 79.1041 181.477 79.7369C183.714 80.3616 185.999 81.397 187.734 82.2831C188.599 82.725 189.323 83.1274 189.83 83.419Z" fill="#FFADDA" fill-opacity="0.5" stroke="#99286E"/>
<rect x="179.305" y="84.0548" width="0.986301" height="6.41096" transform="rotate(85.0497 179.305 84.0548)" fill="#FFEFF7"/>
<path d="M201.965 138.311C201.862 138.588 201.77 138.827 201.694 139.023C201.533 138.888 201.338 138.722 201.114 138.529C200.423 137.932 199.456 137.072 198.359 136.025C196.161 133.927 193.452 131.09 191.371 128.105C189.272 125.096 187.888 122.043 188.167 119.488C188.304 118.234 188.842 117.08 189.937 116.081C191.041 115.072 192.732 114.203 195.191 113.574C197.651 112.946 199.551 112.898 201.004 113.253C202.444 113.605 203.47 114.359 204.192 115.393C205.662 117.502 205.912 120.844 205.514 124.491C205.12 128.109 204.104 131.898 203.182 134.793C202.721 136.238 202.285 137.456 201.965 138.311Z" fill="#FFADDA" fill-opacity="0.5" stroke="#99286E"/>
<rect x="198.06" y="122.222" width="1.53425" height="9.9726" transform="rotate(165.667 198.06 122.222)" fill="#FFEFF7"/>
<path d="M190.478 188.31C190.478 188.31 192.29 178.273 189.569 172.713C185.114 163.609 171.509 161.097 167.144 151.782C164.654 146.468 166.245 137.019 166.245 137.019" stroke="#99286E"/>
<path d="M166.051 181.02C165.99 181.078 165.933 181.133 165.88 181.184C165.85 181.116 165.818 181.044 165.785 180.967C165.55 180.431 165.229 179.668 164.883 178.76C164.191 176.939 163.411 174.555 163.033 172.264C162.651 169.943 162.705 167.846 163.538 166.5C163.942 165.847 164.538 165.355 165.408 165.091C166.291 164.823 167.481 164.784 169.064 165.097C170.648 165.411 171.733 165.9 172.447 166.484C173.151 167.06 173.515 167.742 173.64 168.5C173.897 170.062 173.149 172.021 171.911 174.021C170.689 175.995 169.059 177.902 167.725 179.322C167.06 180.031 166.472 180.614 166.051 181.02Z" fill="#FFADDA" fill-opacity="0.5" stroke="#99286E"/>
<rect x="168.367" y="170.733" width="0.986301" height="6.41096" transform="rotate(-168.803 168.367 170.733)" fill="#FFEFF7"/>
<path d="M197.577 160.412C197.626 160.48 197.672 160.544 197.715 160.604C197.645 160.624 197.569 160.646 197.488 160.669C196.925 160.828 196.125 161.042 195.178 161.26C193.28 161.697 190.811 162.145 188.49 162.206C186.139 162.267 184.069 161.927 182.85 160.918C182.258 160.429 181.852 159.77 181.709 158.873C181.565 157.961 181.688 156.777 182.215 155.252C182.742 153.726 183.375 152.718 184.051 152.09C184.718 151.472 185.443 151.204 186.211 151.184C187.793 151.142 189.632 152.152 191.444 153.651C193.233 155.132 194.899 157.007 196.124 158.522C196.734 159.278 197.232 159.94 197.577 160.412Z" fill="#FFADDA" fill-opacity="0.5" stroke="#99286E"/>
<rect x="187.703" y="156.712" width="0.986301" height="6.41096" transform="rotate(109.05 187.703 156.712)" fill="#FFEFF7"/>
<path d="M186.336 215.495C186.129 215.705 185.948 215.886 185.798 216.035C185.706 215.845 185.596 215.615 185.47 215.347C185.081 214.521 184.548 213.343 183.971 211.94C182.817 209.129 181.496 205.435 180.809 201.862C180.116 198.259 180.093 194.908 181.387 192.686C182.022 191.596 182.983 190.762 184.39 190.294C185.809 189.822 187.707 189.715 190.209 190.141C192.712 190.567 194.467 191.296 195.65 192.212C196.822 193.119 197.453 194.225 197.692 195.464C198.177 197.988 197.046 201.143 195.199 204.313C193.368 207.457 190.898 210.506 188.878 212.775C187.87 213.908 186.977 214.843 186.336 215.495Z" fill="#FFADDA" fill-opacity="0.5" stroke="#99286E"/>
<rect x="189.313" y="199.208" width="1.53425" height="9.9726" transform="rotate(-170.333 189.313 199.208)" fill="#FFEFF7"/>
<path d="M106.969 23.3296C106.969 23.3296 116.875 25.7559 120.848 30.5035C127.353 38.2765 124.113 51.7272 130.848 59.5035C134.69 63.9397 143.969 66.3296 143.969 66.3296" stroke="#99286E"/>
<path d="M103.693 48.6097C103.615 48.6412 103.542 48.6711 103.474 48.6992C103.523 48.7539 103.576 48.8125 103.633 48.8746C104.027 49.3069 104.593 49.9109 105.283 50.5956C106.665 51.9685 108.525 53.6513 110.465 54.9282C112.429 56.2217 114.366 57.025 115.935 56.8114C116.696 56.7078 117.388 56.363 117.983 55.6755C118.587 54.9778 119.107 53.9071 119.465 52.3331C119.822 50.7591 119.816 49.5689 119.573 48.6787C119.334 47.8016 118.858 47.1914 118.217 46.7692C116.895 45.8987 114.801 45.786 112.47 46.1033C110.169 46.4165 107.764 47.1301 105.925 47.7708C105.007 48.0903 104.235 48.3901 103.693 48.6097Z" fill="#FFADDA" fill-opacity="0.5" stroke="#99286E"/>
<rect width="0.986301" height="6.41096" transform="matrix(-0.221604 0.975137 0.975137 0.221604 114.032 50.6775)" fill="#FFEFF7"/>
<path d="M135.341 28.1915C135.299 28.1187 135.26 28.0503 135.223 27.9867C135.175 28.043 135.125 28.1035 135.071 28.1681C134.696 28.6174 134.175 29.2614 133.591 30.0378C132.42 31.5944 131.007 33.6673 130.007 35.7632C128.994 37.8861 128.463 39.9148 128.889 41.4395C129.096 42.179 129.532 42.8177 130.294 43.3132C131.068 43.8161 132.2 44.1849 133.808 44.3242C135.416 44.4635 136.594 44.2947 137.443 43.9324C138.279 43.5753 138.818 43.0211 139.149 42.3281C139.831 40.8994 139.656 38.8096 139.024 36.5441C138.399 34.3075 137.363 32.0226 136.477 30.2878C136.035 29.4225 135.633 28.6986 135.341 28.1915Z" fill="#FFADDA" fill-opacity="0.5" stroke="#99286E"/>
<rect width="0.986301" height="6.41096" transform="matrix(-0.99627 -0.086291 -0.086291 0.99627 134.706 38.7164)" fill="#FFEFF7"/>
<path d="M80.4491 16.0563C80.1723 16.1599 79.9335 16.2514 79.7372 16.3278C79.8728 16.4889 80.0384 16.6837 80.2316 16.9074C80.8287 17.5989 81.688 18.5651 82.7352 19.6624C84.8329 21.8605 87.6705 24.5695 90.6554 26.6509C93.6649 28.7494 96.7171 30.1334 99.2725 29.8547C100.527 29.718 101.68 29.1791 102.68 28.0846C103.688 26.9801 104.558 25.2899 105.186 22.8302C105.815 20.3704 105.863 18.4703 105.507 17.0173C105.155 15.5775 104.402 14.5514 103.367 13.8298C101.259 12.3595 97.9165 12.1096 94.2692 12.5074C90.6517 12.9018 86.8624 13.9176 83.9674 14.84C82.5222 15.3005 81.3047 15.7361 80.4491 16.0563Z" fill="#FFADDA" fill-opacity="0.5" stroke="#99286E"/>
<rect width="1.53425" height="9.9726" transform="matrix(-0.247557 0.968873 0.968873 0.247557 96.5382 19.9612)" fill="#FFEFF7"/>
<path d="M30.4508 27.5436C30.4508 27.5436 40.4871 25.7311 46.0477 28.4522C55.1518 32.9074 57.6632 46.5129 66.9785 50.8776C72.2927 53.3677 81.7416 51.7768 81.7416 51.7768" stroke="#99286E"/>
<path d="M37.7404 51.9705C37.6821 52.031 37.6275 52.0881 37.5766 52.1414C37.6439 52.1713 37.7162 52.2033 37.7932 52.237C38.3289 52.4717 39.0923 52.793 40.0005 53.1381C41.8215 53.8301 44.2055 54.6108 46.4968 54.9884C48.8176 55.371 50.914 55.3169 52.2601 54.4838C52.913 54.0798 53.4053 53.4831 53.6692 52.6131C53.9371 51.7301 53.9766 50.5405 53.6632 48.9571C53.3498 47.3737 52.86 46.2888 52.2759 45.5745C51.7004 44.8706 51.018 44.5065 50.2604 44.3816C48.6985 44.1242 46.7396 44.8729 44.7395 46.1107C42.7648 47.3328 40.858 48.9628 39.438 50.2964C38.7298 50.9615 38.1464 51.5494 37.7404 51.9705Z" fill="#FFADDA" fill-opacity="0.5" stroke="#99286E"/>
<rect width="0.986301" height="6.41096" transform="matrix(0.194178 0.980966 0.980966 -0.194178 48.0269 49.6542)" fill="#FFEFF7"/>
<path d="M58.3481 20.445C58.2802 20.3955 58.2162 20.3491 58.1564 20.3061C58.1359 20.3768 58.1142 20.4528 58.0913 20.5336C57.932 21.0964 57.718 21.8966 57.5002 22.8434C57.0635 24.7419 56.6159 27.2102 56.5548 29.5316C56.493 31.8829 56.833 33.9523 57.8422 35.1719C58.3316 35.7635 58.9899 36.1696 59.8879 36.3122C60.7992 36.4569 61.9831 36.3335 63.5088 35.8067C65.0345 35.2798 66.0423 34.6464 66.6701 33.9703C67.2888 33.304 67.5563 32.5782 67.5764 31.8107C67.618 30.2282 66.6087 28.39 65.1092 26.5778C63.6288 24.7886 61.7535 23.1224 60.2384 21.8979C59.4828 21.2872 58.8207 20.7896 58.3481 20.445Z" fill="#FFADDA" fill-opacity="0.5" stroke="#99286E"/>
<rect width="0.986301" height="6.41096" transform="matrix(-0.945236 0.326389 0.326389 0.945236 62.0482 30.3185)" fill="#FFEFF7"/>
<path d="M3.26564 31.6856C3.05491 31.8928 2.87395 32.0736 2.72566 32.2231C2.9151 32.3152 3.1457 32.4258 3.41315 32.5516C4.23984 32.9404 5.41787 33.4736 6.82084 34.0501C9.63125 35.2049 13.3254 36.5255 16.8988 37.2129C20.5016 37.906 23.8529 37.9288 26.074 36.6349C27.1641 35.9998 27.9985 35.0385 28.4666 33.632C28.9388 32.2127 29.0456 30.315 28.6193 27.8123C28.193 25.3096 27.464 23.5543 26.5484 22.3714C25.6411 21.1992 24.5355 20.5683 23.2966 20.33C20.7724 19.8444 17.6176 20.9755 14.4475 22.8223C11.3032 24.654 8.25462 27.1232 5.98504 29.1434C4.85206 30.1519 3.91699 31.045 3.26564 31.6856Z" fill="#FFADDA" fill-opacity="0.5" stroke="#99286E"/>
<rect width="1.53425" height="9.9726" transform="matrix(0.167922 0.9858 0.9858 -0.167922 19.5521 28.7089)" fill="#FFEFF7"/>
</svg>
