<?xml version="1.0" encoding="utf-8"?>
<!-- Generator: Adobe Illustrator 28.2.0, SVG Export Plug-In . SVG Version: 6.00 Build 0)  -->
<svg version="1.1" id="レイヤー_1" xmlns="http://www.w3.org/2000/svg" xmlns:xlink="http://www.w3.org/1999/xlink" x="0px"
	 y="0px" viewBox="0 0 512 512" style="enable-background:new 0 0 512 512;" xml:space="preserve">
<style type="text/css">
	.st0{fill:url(#SVGID_1_);}
	.st1{fill:#BA5252;}
	.st2{fill:#FFFFFF;}
</style>
<linearGradient id="SVGID_1_" gradientUnits="userSpaceOnUse" x1="256" y1="517.6888" x2="256" y2="-17.3409">
	<stop  offset="0" style="stop-color:#D12C2C"/>
	<stop  offset="0.4702" style="stop-color:#EA684F"/>
	<stop  offset="0.817" style="stop-color:#F98D66"/>
	<stop  offset="1" style="stop-color:#FF9B6E"/>
</linearGradient>
<rect class="st0" width="512" height="512"/>
<g>
	<path class="st1" d="M445.15,359.27L76.79,327.04c-3.3-0.29-5.74-3.2-5.45-6.5L92.47,78.95c0.29-3.3,3.2-5.74,6.5-5.45
		l368.36,32.23c3.3,0.29,5.74,3.2,5.45,6.5l-21.14,241.59C451.36,357.11,448.45,359.56,445.15,359.27z"/>
</g>
<g>
	<path class="st2" d="M416.09,405.52H46.32c-3.31,0-6-2.69-6-6V157.01c0-3.31,2.69-6,6-6h369.77c3.31,0,6,2.69,6,6v242.51
		C422.09,402.83,419.41,405.52,416.09,405.52z"/>
</g>
<g>
	<g>
		<path class="st1" d="M147.49,239.21c-2.79,3.68-6.34,6.09-11.91,6.47c-9.63,6.71,0.88,73-39.41,73
			c-12.42,0-21.67-7.86-21.67-18.76c0-12.42,10.52-18.25,19.26-18.25c3.29,0,4.31,0.5,4.31,1.52c0,1.01-0.64,1.52-1.65,1.77
			c-2.91,0.89-6.08,4.18-6.08,7.98c0,4.31,3.17,7.48,7.73,7.48c16.98,0,15.21-33.84,21.16-48.92c1.39-3.42,3.42-5.58,5.7-6.97
			c-4.56-1.52-7.73-2.54-14.07-2.54c-7.23,0-12.3,4.56-12.3,9.25c0,3.68,2.16,5.58,5.33,5.58c2.03,0,2.91-1.27,3.93-1.27
			c0.76,0,1.27,0.51,1.27,1.4c0,4.69-6.08,12.8-14.95,12.8c-7.86,0-14.45-5.83-14.45-14.7c0-13.68,13.18-21.67,27.5-21.67
			s21.54,2.79,28.01,2.79c8.49,0,11.15-4.05,12.92-4.05c0.89,0,1.4,0.38,1.4,1.27C149.52,234.9,148.51,237.94,147.49,239.21z"/>
	</g>
	<g>
		<path class="st1" d="M162.07,308.28c0-6.85,4.05-13.44,4.05-18.25c0-1.9-1.26-3.04-3.04-3.04c-2.66,0-5.45,2.79-7.98,7.86
			c-2.28,4.31-5.2,17.24-5.32,19.9c0,2.15-0.89,2.66-2.66,2.66c-3.93,0-9,0.63-11.03,0.63c-1.52,0-2.41-0.63-2.41-2.79
			c0-10.77,11.15-38.78,11.15-56.52c0-4.18-2.16-6.21-4.82-6.21c-1.14,0-1.9-0.51-1.9-1.52c0-2.66,6.72-6.84,13.94-6.84
			c6.71,0,10.77,3.55,10.77,9.88c0,7.1-5.58,26.11-7.35,31.68c3.17-3.55,9.12-7.86,16.35-7.86c6.97,0,10.77,3.17,10.77,8.62
			c0,6.34-3.8,11.28-3.8,16.98c0,2.79,1.65,4.31,3.93,4.31c2.15,0,3.17-1.01,4.81-2.66c0.89-0.89,1.4-1.27,2.16-1.27
			c1.14,0,1.77,1.01,1.77,1.78c0,1.39-0.76,2.41-2.03,4.05c-2.66,3.42-8.11,8.36-16.09,8.36
			C165.62,318.03,162.07,314.11,162.07,308.28z"/>
	</g>
	<g>
		<path class="st1" d="M226.96,318.03c-7.6,0-9.76-6.71-9.76-6.71s-6.71,6.71-15.97,6.71c-7.48,0-13.56-5.07-13.56-14.83
			c0-12.55,7.6-25.35,25.72-25.35c6.72,0,8.62,2.41,10.65,2.41c2.15,0,7.6-2.41,10.52-2.41c1.14,0,1.9,0.51,1.9,1.9
			c0,3.04-4.44,12.93-4.44,22.81c0,3.3,2.03,5.2,4.31,5.2c2.15,0,3.17-1.01,4.81-2.66c0.89-0.89,1.4-1.27,2.16-1.27
			c1.14,0,1.77,1.01,1.77,1.78c0,1.39-0.76,2.41-2.03,4.05C240.39,313.09,234.94,318.03,226.96,318.03z M214.54,283.44
			c-7.22,0-10.39,13.3-10.39,20.28c0,3.3,1.52,5.96,4.31,5.96c2.41,0,4.94-2.15,6.59-5.96c1.52-3.29,3.3-11.66,3.3-16.6
			C218.34,284.83,217.2,283.44,214.54,283.44z"/>
	</g>
	<g>
		<path class="st1" d="M266.5,308.28c0-7.73,4.06-12.8,4.06-17.74c0-2.03-1.14-3.55-2.92-3.55c-2.15,0-5.19,2.15-7.98,7.73
			c-2.16,4.31-5.45,15.08-5.45,20.02c0,2.15-0.89,2.66-2.79,2.66c-3.8,0-8.74,0.63-10.64,0.63c-1.65,0-2.66-0.63-2.66-2.79
			c0-4.69,5.32-21.8,5.32-28.64c0-2.16-0.89-2.41-0.89-4.06c0-2.79,6.84-4.69,14.19-4.69c2.79,0,4.31,1.14,4.31,3.3
			c0,2.03-1.01,5.7-1.01,5.7c2.28-2.79,9.76-9,17.23-9c6.97,0,9.76,3.17,9.76,7.99c0,5.83-3.55,12.16-3.55,17.36
			c0,3.29,1.77,4.56,4.06,4.56c2.15,0,3.17-1.01,4.81-2.66c0.89-0.89,1.4-1.27,2.16-1.27c1.14,0,1.77,1.01,1.77,1.78
			c0,1.39-0.76,2.41-2.03,4.05c-2.66,3.42-8.11,8.36-16.09,8.36C270.94,318.03,266.5,313.73,266.5,308.28z"/>
	</g>
	<g>
		<path class="st1" d="M336.84,305.11c0.89-0.89,1.39-1.27,2.15-1.27c1.14,0,1.78,1.01,1.78,1.78c0,1.39-0.76,2.41-2.03,4.05
			c-2.79,3.55-8.24,8.36-15.46,8.36c-11.02,0-11.78-16.85-13.05-16.85c0,0-3.04,11.15-3.04,13.56c0,2.15-0.76,2.66-2.66,2.66
			c-3.8,0-8.87,0.63-10.9,0.63c-1.52,0-2.41-0.63-2.41-2.79c0-11.03,11.15-37.64,11.15-56.52c0-4.18-2.15-6.21-4.81-6.21
			c-1.14,0-1.9-0.51-1.9-1.52c0-2.66,6.71-6.84,13.94-6.84c6.71,0,10.77,3.55,10.77,9.88c0,7.98-9,35.74-9,40.81
			c3.8,0,7.6-4.31,7.6-7.35c0-1.39-0.88-1.65-0.88-2.91c0-2.66,7.86-6.72,13.68-6.72c2.54,0,3.68,1.02,3.68,2.92
			c0,5.32-5.45,12.16-14.83,17.36c1.39,4.43,5.7,9.63,11.03,9.63C333.92,307.77,335.19,306.76,336.84,305.11z"/>
	</g>
	<g>
		<path class="st1" d="M346.98,305.49c0,3.17,1.14,5.32,3.42,5.32c1.78,0,2.79-1.14,2.79-3.42c0-7.48-12.55-8.62-12.55-18.12
			c0-7.98,7.99-12.04,17.49-12.04c9.25,0,13.43,3.55,13.43,8.74c0,3.42-1.77,6.47-5.95,6.47c-2.41,0-4.56-1.9-4.56-4.31
			c0-1.9,1.01-2.66,1.01-3.8c0-1.27-1.01-1.78-2.41-1.78c-1.65,0-3.67,1.78-3.67,4.18c0,7.48,13.94,8.49,13.94,17.74
			c0,8.24-6.59,13.82-17.74,13.82c-9.51,0-16.48-4.18-16.48-11.03c0-4.05,2.92-6.46,5.83-6.46
			C344.95,300.8,346.98,302.45,346.98,305.49z"/>
	</g>
	<g>
		<path class="st1" d="M382.85,302.95c3.04,0,5.07,2.54,5.07,5.83c0,4.18-3.55,9.38-8.62,9.38c-2.79,0-4.81-2.53-4.81-5.96
			C374.48,308.15,378.29,302.95,382.85,302.95z"/>
	</g>
</g>
</svg>
