<svg width="101" height="101" viewBox="0 0 101 101" fill="none" xmlns="http://www.w3.org/2000/svg">
<path d="M83.0859 16.5869C83.088 16.8256 83.0885 17.0358 83.0882 17.2121C82.9746 17.0773 82.8399 16.9159 82.6881 16.7317C82.1999 16.1396 81.5351 15.3121 80.8288 14.3701C79.4108 12.479 77.845 10.1521 77.1879 8.34696C77.0777 8.04404 77.094 7.66955 77.2031 7.25607C77.3115 6.84536 77.5053 6.41962 77.7201 6.03015C77.9342 5.64187 78.1653 5.29687 78.3432 5.04853C78.4301 4.92725 78.504 4.82951 78.5566 4.76159C78.6405 4.77983 78.7599 4.80721 78.9044 4.84426C79.2004 4.92012 79.5991 5.03589 80.0128 5.19567C80.4277 5.35595 80.8498 5.55755 81.1968 5.80251C81.5462 6.04911 81.7994 6.32548 81.9097 6.6284C82.5667 8.43354 82.8628 11.2226 82.9922 13.5828C83.0566 14.7583 83.0793 15.8195 83.0859 16.5869Z" fill="#54AEFF" fill-opacity="0.5" stroke="#0550AE" stroke-width="0.46"/>
<path d="M83.5401 19.0727C83.538 18.834 83.5375 18.6238 83.5378 18.4475C83.6513 18.5823 83.7861 18.7437 83.9379 18.9278C84.4261 19.5199 85.0909 20.3475 85.7971 21.2894C87.2151 23.1806 88.781 25.5075 89.438 27.3126C89.5483 27.6155 89.5319 27.99 89.4228 28.4035C89.3144 28.8142 89.1207 29.24 88.9059 29.6294C88.6918 30.0177 88.4607 30.3627 88.2828 30.611C88.1959 30.7323 88.122 30.8301 88.0694 30.898C87.9855 30.8797 87.8661 30.8524 87.7215 30.8153C87.4256 30.7395 87.0268 30.6237 86.6132 30.4639C86.1983 30.3036 85.7762 30.102 85.4292 29.8571C85.0798 29.6105 84.8266 29.3341 84.7163 29.0312C84.0593 27.226 83.7631 24.437 83.6338 22.0768C83.5694 20.9013 83.5467 19.84 83.5401 19.0727Z" fill="#54AEFF" fill-opacity="0.5" stroke="#0550AE" stroke-width="0.46"/>
<path d="M82.6504 18.8692C82.8177 18.699 82.966 18.55 83.0908 18.4256C83.0758 18.6012 83.0569 18.8105 83.0341 19.0481C82.9606 19.812 82.8455 20.8673 82.6789 22.0327C82.3443 24.3726 81.8062 27.1252 80.9943 28.8662C80.8581 29.1584 80.5817 29.4117 80.2122 29.6269C79.8451 29.8406 79.4071 30.0047 78.9798 30.1282C78.5538 30.2513 78.1465 30.3319 77.8451 30.3817C77.6979 30.406 77.5765 30.4229 77.4913 30.4337C77.4449 30.3615 77.3798 30.2577 77.3038 30.1293C77.1482 29.8664 76.9481 29.5026 76.7686 29.0971C76.5885 28.6904 76.4326 28.2494 76.3604 27.8308C76.2878 27.4093 76.3041 27.0349 76.4404 26.7427C77.2522 25.0017 79.0149 22.8201 80.5924 21.0598C81.3781 20.183 82.1124 19.4165 82.6504 18.8692Z" fill="#54AEFF" fill-opacity="0.5" stroke="#0550AE" stroke-width="0.46"/>
<path d="M84.0868 16.7903C83.9195 16.9606 83.7712 17.1096 83.6464 17.234C83.6614 17.0584 83.6802 16.849 83.7031 16.6114C83.7766 15.8475 83.8917 14.7923 84.0583 13.6268C84.3929 11.2869 84.931 8.53432 85.7429 6.7933C85.8791 6.50114 86.1554 6.24789 86.525 6.03268C86.892 5.8189 87.3301 5.65485 87.7574 5.53134C88.1833 5.40821 88.5907 5.32763 88.8921 5.27785C89.0393 5.25354 89.1607 5.23667 89.2459 5.22582C89.2923 5.29806 89.3574 5.40187 89.4334 5.53026C89.589 5.79317 89.7891 6.15699 89.9686 6.56246C90.1487 6.96918 90.3046 7.41019 90.3767 7.82879C90.4494 8.25021 90.4331 8.62469 90.2968 8.91685C89.485 10.6579 87.7223 12.8394 86.1448 14.5998C85.3591 15.4766 84.6248 16.243 84.0868 16.7903Z" fill="#54AEFF" fill-opacity="0.5" stroke="#0550AE" stroke-width="0.46"/>
<path d="M82.1261 18.0569C82.3648 18.0548 82.575 18.0544 82.7513 18.0546C82.6164 18.1682 82.4551 18.3029 82.2709 18.4548C81.6788 18.943 80.8513 19.6077 79.9093 20.314C78.0182 21.732 75.6913 23.2979 73.8861 23.9549C73.5832 24.0651 73.2087 24.0488 72.7953 23.9397C72.3845 23.8313 71.9588 23.6376 71.5693 23.4228C71.1811 23.2086 70.8361 22.9776 70.5877 22.7996C70.4664 22.7127 70.3687 22.6388 70.3008 22.5863C70.319 22.5023 70.3464 22.3829 70.3834 22.2384C70.4593 21.9424 70.5751 21.5437 70.7349 21.13C70.8951 20.7151 71.0967 20.2931 71.3417 19.946C71.5883 19.5967 71.8647 19.3434 72.1676 19.2332C73.9727 18.5761 76.7617 18.28 79.1219 18.1506C80.2975 18.0862 81.3587 18.0635 82.1261 18.0569Z" fill="#54AEFF" fill-opacity="0.5" stroke="#0550AE" stroke-width="0.46"/>
<path d="M84.6118 17.6026C84.3731 17.6047 84.1629 17.6052 83.9866 17.6049C84.1215 17.4914 84.2828 17.3566 84.467 17.2048C85.0591 16.7166 85.8867 16.0518 86.8286 15.3456C88.7197 13.9276 91.0466 12.3617 92.8518 11.7047C93.1547 11.5944 93.5292 11.6108 93.9427 11.7199C94.3534 11.8283 94.7791 12.022 95.1686 12.2368C95.5569 12.4509 95.9019 12.682 96.1502 12.8599C96.2715 12.9468 96.3692 13.0207 96.4371 13.0733C96.4189 13.1572 96.3915 13.2766 96.3545 13.4212C96.2786 13.7171 96.1628 14.1159 96.0031 14.5295C95.8428 14.9444 95.6412 15.3665 95.3962 15.7135C95.1496 16.0629 94.8733 16.3161 94.5703 16.4264C92.7652 17.0834 89.9762 17.3796 87.616 17.5089C86.4404 17.5733 85.3792 17.596 84.6118 17.6026Z" fill="#54AEFF" fill-opacity="0.5" stroke="#0550AE" stroke-width="0.46"/>
<path d="M82.3293 17.1115C82.4995 17.2789 82.6485 17.4272 82.773 17.552C82.5973 17.5369 82.388 17.5181 82.1504 17.4953C81.3865 17.4218 80.3313 17.3067 79.1658 17.14C76.8259 16.8055 74.0733 16.2674 72.3323 15.4555C72.0401 15.3193 71.7869 15.0429 71.5716 14.6734C71.3579 14.3063 71.1938 13.8683 71.0703 13.441C70.9472 13.015 70.8666 12.6077 70.8168 12.3063C70.7925 12.1591 70.7756 12.0377 70.7648 11.9525C70.837 11.9061 70.9408 11.841 71.0692 11.765C71.3321 11.6093 71.696 11.4092 72.1014 11.2298C72.5081 11.0497 72.9492 10.8938 73.3678 10.8216C73.7892 10.749 74.1637 10.7653 74.4558 10.9015C76.1968 11.7134 78.3784 13.4761 80.1388 15.0536C81.0155 15.8392 81.782 16.5736 82.3293 17.1115Z" fill="#54AEFF" fill-opacity="0.5" stroke="#0550AE" stroke-width="0.46"/>
<path d="M84.408 18.548C84.2378 18.3807 84.0888 18.2324 83.9643 18.1075C84.14 18.1226 84.3493 18.1414 84.5869 18.1643C85.3508 18.2377 86.406 18.3529 87.5715 18.5195C89.9114 18.8541 92.664 19.3922 94.405 20.204C94.6972 20.3403 94.9504 20.6166 95.1657 20.9862C95.3794 21.3532 95.5435 21.7913 95.667 22.2185C95.7901 22.6445 95.8707 23.0518 95.9205 23.3533C95.9448 23.5005 95.9617 23.6218 95.9725 23.707C95.9003 23.7535 95.7965 23.8186 95.6681 23.8946C95.4052 24.0502 95.0413 24.2503 94.6359 24.4298C94.2292 24.6098 93.7881 24.7657 93.3695 24.8379C92.9481 24.9106 92.5736 24.8942 92.2815 24.758C90.5405 23.9462 88.3589 22.1834 86.5986 20.606C85.7218 19.8203 84.9553 19.086 84.408 18.548Z" fill="#54AEFF" fill-opacity="0.5" stroke="#0550AE" stroke-width="0.46"/>
<path d="M90.2784 51.4242C90.2784 51.4242 89.1623 46.8675 86.9784 45.0399C83.4028 42.0476 77.2155 43.5378 73.6384 40.4399C71.5977 38.6726 70.4984 34.4042 70.4984 34.4042" stroke="#0550AE" stroke-width="0.46"/>
<path d="M78.6496 52.9311C78.6351 52.967 78.6213 53.0006 78.6084 53.0319C78.5833 53.0092 78.5563 52.9849 78.5278 52.9588C78.3289 52.7776 78.051 52.5169 77.7361 52.1998C77.1046 51.5641 76.3305 50.7083 75.7431 49.8161C75.1481 48.9124 74.7786 48.0213 74.8768 47.2997C74.9245 46.9498 75.0831 46.6313 75.3993 46.3576C75.7203 46.0798 76.2128 45.8406 76.9368 45.6761C77.6608 45.5115 78.2084 45.5144 78.6178 45.6262C79.0213 45.7363 79.302 45.955 79.4962 46.25C79.8966 46.8582 79.9485 47.8214 79.8026 48.8935C79.6584 49.952 79.3302 51.0583 79.0355 51.9045C78.8885 52.3266 78.7506 52.6817 78.6496 52.9311Z" fill="#54AEFF" fill-opacity="0.5" stroke="#0550AE" stroke-width="0.46"/>
<rect x="77.6985" y="48.175" width="0.453699" height="2.94904" transform="rotate(167.197 77.6985 48.175)" fill="#DDF4FF"/>
<path d="M88.0419 38.3728C88.0754 38.392 88.1069 38.4103 88.1362 38.4273C88.1103 38.4492 88.0824 38.4725 88.0527 38.4973C87.846 38.6695 87.5498 38.9091 87.1927 39.1778C86.4766 39.7165 85.5231 40.3664 84.559 40.8264C83.5824 41.2923 82.6492 41.5367 81.9479 41.3408C81.6077 41.2457 81.3139 41.0451 81.0859 40.6944C80.8546 40.3385 80.685 39.8179 80.6209 39.0782C80.5568 38.3385 80.6345 37.7965 80.8011 37.4061C80.9654 37.0215 81.2203 36.7733 81.5391 36.6212C82.1963 36.3077 83.1576 36.3879 84.1997 36.679C85.2286 36.9663 86.2796 37.4426 87.0777 37.8502C87.4757 38.0535 87.8087 38.2386 88.0419 38.3728Z" fill="#54AEFF" fill-opacity="0.5" stroke="#0550AE" stroke-width="0.46"/>
<rect x="83.2007" y="38.6652" width="0.453699" height="2.94904" transform="rotate(85.0497 83.2007 38.6652)" fill="#DDF4FF"/>
<path d="M93.6241 63.6232C93.5764 63.7505 93.5343 63.8604 93.4992 63.9507C93.4251 63.8883 93.3355 63.8121 93.2326 63.7232C92.9145 63.4486 92.47 63.0533 91.9653 62.5716C90.9542 61.6066 89.708 60.3013 88.7506 58.9283C87.7852 57.544 87.1486 56.1399 87.2768 54.9644C87.3397 54.3875 87.5876 53.857 88.0911 53.3972C88.5991 52.9332 89.3766 52.5332 90.5081 52.2441C91.6396 51.955 92.5136 51.933 93.182 52.0964C93.8444 52.2583 94.3163 52.6049 94.6483 53.081C95.3246 54.0509 95.4395 55.5882 95.2566 57.266C95.0751 58.93 94.6079 60.6731 94.1836 62.0048C93.9718 62.6696 93.7714 63.2296 93.6241 63.6232Z" fill="#54AEFF" fill-opacity="0.5" stroke="#0550AE" stroke-width="0.46"/>
<rect x="91.8279" y="56.2222" width="0.705754" height="4.5874" transform="rotate(165.667 91.8279 56.2222)" fill="#DDF4FF"/>
<path d="M88.3398 86.6225C88.3398 86.6225 89.1736 82.0057 87.9219 79.4479C85.8725 75.26 79.614 74.1047 77.6062 69.8197C76.4608 67.3751 77.1926 63.0287 77.1926 63.0287" stroke="#0550AE" stroke-width="0.46"/>
<path d="M77.1035 83.2692C77.0756 83.296 77.0494 83.3212 77.0248 83.3445C77.0111 83.3136 76.9964 83.2803 76.9809 83.2449C76.8729 82.9985 76.7251 82.6473 76.5664 82.2295C76.248 81.3919 75.8889 80.2953 75.7152 79.2413C75.5392 78.1737 75.5641 77.2093 75.9473 76.5901C76.1332 76.2898 76.4076 76.0634 76.8079 75.942C77.214 75.8187 77.7613 75.8005 78.4896 75.9447C79.218 76.0889 79.717 76.3142 80.0456 76.5829C80.3694 76.8476 80.5369 77.1615 80.5944 77.51C80.7128 78.2285 80.3684 79.1296 79.799 80.0496C79.2368 80.958 78.487 81.8351 77.8735 82.4883C77.5676 82.8141 77.2972 83.0825 77.1035 83.2692Z" fill="#54AEFF" fill-opacity="0.5" stroke="#0550AE" stroke-width="0.46"/>
<rect x="78.1689" y="78.5374" width="0.453699" height="2.94904" transform="rotate(-168.803 78.1689 78.5374)" fill="#DDF4FF"/>
<path d="M91.6052 73.7897C91.6279 73.8209 91.6492 73.8504 91.6691 73.8779C91.6365 73.8873 91.6016 73.8973 91.5644 73.9078C91.3055 73.9811 90.9374 74.0795 90.5019 74.1797C89.6286 74.3806 88.4932 74.5865 87.4253 74.6146C86.3437 74.643 85.3918 74.4867 84.8308 74.0224C84.5587 73.7973 84.3718 73.4944 84.3063 73.0814C84.2397 72.6622 84.2964 72.1176 84.5388 71.4158C84.7811 70.7139 85.0725 70.2504 85.3835 69.9616C85.69 69.677 86.0239 69.5539 86.3769 69.5447C87.1049 69.5255 87.9505 69.9898 88.7841 70.6796C89.6071 71.3606 90.3735 72.2232 90.9368 72.9201C91.2177 73.2677 91.4466 73.5723 91.6052 73.7897Z" fill="#54AEFF" fill-opacity="0.5" stroke="#0550AE" stroke-width="0.46"/>
<rect x="87.0634" y="72.0877" width="0.453699" height="2.94904" transform="rotate(109.05 87.0634 72.0877)" fill="#DDF4FF"/>
<path d="M86.4345 99.1276C86.3392 99.2246 86.256 99.3078 86.1872 99.376C86.1449 99.2889 86.094 99.1828 86.0362 99.0598C85.8573 98.6795 85.612 98.1376 85.3469 97.4922C84.8156 96.1994 84.2081 94.5001 83.8919 92.8564C83.5731 91.1991 83.5626 89.6575 84.1579 88.6358C84.45 88.1343 84.8922 87.7505 85.5392 87.5352C86.192 87.3179 87.065 87.2688 88.2162 87.4649C89.3675 87.661 90.1749 87.9964 90.719 88.4175C91.2583 88.8349 91.5484 89.3435 91.6581 89.9134C91.8814 91.0745 91.3612 92.5257 90.5116 93.984C89.669 95.4303 88.5332 96.8327 87.6039 97.8767C87.14 98.3979 86.7292 98.828 86.4345 99.1276Z" fill="#54AEFF" fill-opacity="0.5" stroke="#0550AE" stroke-width="0.46"/>
<rect x="87.8038" y="91.6358" width="0.705753" height="4.5874" transform="rotate(-170.333 87.8038 91.6358)" fill="#DDF4FF"/>
<path d="M49.9257 10.7316C49.9257 10.7316 54.4824 11.8477 56.31 14.0316C59.3023 17.6072 57.8121 23.7945 60.91 27.3716C62.6773 29.4123 66.9457 30.5116 66.9457 30.5116" stroke="#0550AE" stroke-width="0.46"/>
<path d="M48.4188 22.3605C48.383 22.375 48.3493 22.3887 48.318 22.4016C48.3407 22.4268 48.3651 22.4537 48.3911 22.4823C48.5723 22.6812 48.833 22.959 49.1501 23.274C49.7859 23.9055 50.6416 24.6796 51.5338 25.267C52.4376 25.862 53.3286 26.2315 54.0502 26.1333C54.4001 26.0856 54.7186 25.927 54.9923 25.6107C55.2701 25.2898 55.5093 24.7973 55.6738 24.0733C55.8384 23.3492 55.8355 22.8017 55.7238 22.3922C55.6136 21.9888 55.395 21.7081 55.1 21.5138C54.4917 21.1134 53.5285 21.0616 52.4564 21.2075C51.3979 21.3516 50.2916 21.6798 49.4454 21.9746C49.0233 22.1216 48.6682 22.2595 48.4188 22.3605Z" fill="#54AEFF" fill-opacity="0.5" stroke="#0550AE" stroke-width="0.46"/>
<rect width="0.453699" height="2.94904" transform="matrix(-0.221604 0.975137 0.975137 0.221604 53.1749 23.3116)" fill="#DDF4FF"/>
<path d="M62.9771 12.9681C62.9579 12.9346 62.9397 12.9032 62.9226 12.8739C62.9008 12.8998 62.8774 12.9276 62.8527 12.9573C62.6804 13.164 62.4408 13.4602 62.1721 13.8174C61.6334 14.5335 60.9835 15.487 60.5235 16.4511C60.0576 17.4276 59.8133 18.3608 60.0092 19.0622C60.1042 19.4023 60.3048 19.6962 60.6555 19.9241C61.0114 20.1554 61.532 20.3251 62.2717 20.3891C63.0114 20.4532 63.5534 20.3756 63.9438 20.2089C64.3284 20.0447 64.5766 19.7897 64.7287 19.4709C65.0422 18.8137 64.962 17.8524 64.6709 16.8103C64.3836 15.7815 63.9073 14.7304 63.4997 13.9324C63.2964 13.5343 63.1113 13.2013 62.9771 12.9681Z" fill="#54AEFF" fill-opacity="0.5" stroke="#0550AE" stroke-width="0.46"/>
<rect width="0.453699" height="2.94904" transform="matrix(-0.99627 -0.086291 -0.086291 0.99627 62.6847 17.8095)" fill="#DDF4FF"/>
<path d="M37.7268 7.38592C37.5995 7.43358 37.4896 7.47567 37.3993 7.51078C37.4617 7.5849 37.5379 7.67453 37.6268 7.77743C37.9014 8.09548 38.2967 8.53996 38.7784 9.04472C39.7434 10.0558 41.0487 11.302 42.4217 12.2594C43.806 13.2248 45.2101 13.8614 46.3856 13.7332C46.9625 13.6703 47.493 13.4224 47.9528 12.9189C48.4168 12.4109 48.8168 11.6334 49.1059 10.5019C49.395 9.3704 49.417 8.49636 49.2536 7.82799C49.0917 7.16564 48.7451 6.69367 48.2691 6.36173C47.2991 5.68539 45.7618 5.57045 44.0841 5.75339C42.42 5.93485 40.6769 6.4021 39.3452 6.8264C38.6804 7.03822 38.1204 7.2386 37.7268 7.38592Z" fill="#54AEFF" fill-opacity="0.5" stroke="#0550AE" stroke-width="0.46"/>
<rect width="0.705753" height="4.5874" transform="matrix(-0.247557 0.968873 0.968873 0.247557 45.1278 9.18219)" fill="#DDF4FF"/>
<path d="M14.7275 12.6701C14.7275 12.6701 19.3442 11.8363 21.9021 13.088C26.09 15.1374 27.2452 21.3959 31.5302 23.4037C33.9748 24.5491 38.3213 23.8173 38.3213 23.8173" stroke="#0550AE" stroke-width="0.46"/>
<path d="M18.0807 23.9064C18.0539 23.9343 18.0287 23.9605 18.0054 23.9851C18.0363 23.9988 18.0696 24.0135 18.105 24.029C18.3514 24.137 18.7026 24.2848 19.1204 24.4435C19.958 24.7619 21.0546 25.121 22.1086 25.2947C23.1762 25.4707 24.1406 25.4458 24.7598 25.0626C25.0601 24.8767 25.2865 24.6023 25.4079 24.202C25.5311 23.7959 25.5493 23.2486 25.4052 22.5203C25.261 21.7919 25.0357 21.2929 24.767 20.9643C24.5023 20.6405 24.1884 20.473 23.8399 20.4156C23.1214 20.2971 22.2203 20.6415 21.3003 21.2109C20.3919 21.7731 19.5148 22.5229 18.8616 23.1364C18.5358 23.4423 18.2674 23.7127 18.0807 23.9064Z" fill="#54AEFF" fill-opacity="0.5" stroke="#0550AE" stroke-width="0.46"/>
<rect width="0.453699" height="2.94904" transform="matrix(0.194178 0.980966 0.980966 -0.194178 22.8124 22.8409)" fill="#DDF4FF"/>
<path d="M27.5602 9.4047C27.529 9.38192 27.4996 9.36061 27.4721 9.34081C27.4627 9.37335 27.4526 9.40829 27.4421 9.44548C27.3688 9.70437 27.2704 10.0724 27.1702 10.508C26.9693 11.3813 26.7634 12.5167 26.7353 13.5845C26.7069 14.6662 26.8633 15.6181 27.3275 16.1791C27.5527 16.4512 27.8555 16.638 28.2686 16.7036C28.6877 16.7702 29.2323 16.7134 29.9342 16.4711C30.636 16.2287 31.0996 15.9374 31.3884 15.6263C31.673 15.3198 31.796 14.986 31.8053 14.6329C31.8244 13.905 31.3601 13.0594 30.6704 12.2258C29.9894 11.4028 29.1267 10.6363 28.4298 10.0731C28.0822 9.79213 27.7776 9.56321 27.5602 9.4047Z" fill="#54AEFF" fill-opacity="0.5" stroke="#0550AE" stroke-width="0.46"/>
<rect width="0.453699" height="2.94904" transform="matrix(-0.945236 0.326389 0.326389 0.945236 29.2622 13.9465)" fill="#DDF4FF"/>
<path d="M2.22227 14.5754C2.12533 14.6707 2.04209 14.7539 1.97388 14.8227C2.06102 14.865 2.16709 14.9159 2.29012 14.9737C2.6704 15.1526 3.2123 15.3979 3.85766 15.663C5.15045 16.1943 6.84975 16.8018 8.49351 17.118C10.1508 17.4368 11.6924 17.4473 12.7141 16.8521C13.2156 16.5599 13.5994 16.1177 13.8147 15.4707C14.0319 14.8179 14.0811 13.9449 13.885 12.7937C13.6888 11.6424 13.3535 10.835 12.9323 10.2909C12.515 9.75164 12.0064 9.46145 11.4365 9.35183C10.2754 9.12846 8.82419 9.64874 7.36591 10.4983C5.91954 11.3409 4.5172 12.4767 3.47319 13.406C2.95202 13.8699 2.52189 14.2807 2.22227 14.5754Z" fill="#54AEFF" fill-opacity="0.5" stroke="#0550AE" stroke-width="0.46"/>
<rect width="0.705753" height="4.5874" transform="matrix(0.167922 0.9858 0.9858 -0.167922 9.71387 13.2061)" fill="#DDF4FF"/>
</svg>
