<svg width="80" height="80" viewBox="0 0 80 80" fill="none" xmlns="http://www.w3.org/2000/svg">
<path fill-rule="evenodd" clip-rule="evenodd" d="M40 80C62.0914 80 80 62.0914 80 40C80 17.9086 62.0914 0 40 0C17.9086 0 0 17.9086 0 40C0 62.0914 17.9086 80 40 80ZM40 74C58.7777 74 74 58.7777 74 40C74 21.2223 58.7777 6 40 6C21.2223 6 6 21.2223 6 40C6 58.7777 21.2223 74 40 74Z" fill="#00B01D"/>
<path fill-rule="evenodd" clip-rule="evenodd" d="M40 80C62.0914 80 80 62.0914 80 40C80 17.9086 62.0914 0 40 0C17.9086 0 0 17.9086 0 40C0 62.0914 17.9086 80 40 80ZM40 74C58.7777 74 74 58.7777 74 40C74 21.2223 58.7777 6 40 6C21.2223 6 6 21.2223 6 40C6 58.7777 21.2223 74 40 74Z" fill="url(#paint0_radial_204_47)" fill-opacity="0.5"/>
<path fill-rule="evenodd" clip-rule="evenodd" d="M40 80C62.0914 80 80 62.0914 80 40C80 17.9086 62.0914 0 40 0C17.9086 0 0 17.9086 0 40C0 62.0914 17.9086 80 40 80ZM40 74C58.7777 74 74 58.7777 74 40C74 21.2223 58.7777 6 40 6C21.2223 6 6 21.2223 6 40C6 58.7777 21.2223 74 40 74Z" fill="url(#paint1_linear_204_47)" fill-opacity="0.2"/>
<defs>
<radialGradient id="paint0_radial_204_47" cx="0" cy="0" r="1" gradientUnits="userSpaceOnUse" gradientTransform="translate(40 40) rotate(90) scale(40)">
<stop offset="0.811666"/>
<stop offset="0.95" stop-color="white"/>
<stop offset="1" stop-color="#3F3F3F"/>
</radialGradient>
<linearGradient id="paint1_linear_204_47" x1="40" y1="0" x2="40" y2="80" gradientUnits="userSpaceOnUse">
<stop stop-color="#FFFCFC"/>
<stop offset="1"/>
</linearGradient>
</defs>
</svg>
